<svg xmlns="http://www.w3.org/2000/svg" width="104" height="32.173" viewBox="0 0 104 32.173">
	<g id="Item_8" data-name="Item 8" transform="translate(-0.001 0)">
		<path id="Shape" d="M23.168,32.173a7.281,7.281,0,0,1-.845-.064,8.6,8.6,0,0,1-3.249-1.1,17.183,17.183,0,0,1-4.028-3.349,16.526,16.526,0,0,1-4.028,3.349,8.605,8.605,0,0,1-3.249,1.1,7.281,7.281,0,0,1-.845.064,6.686,6.686,0,0,1-2.632-.515A6.87,6.87,0,0,1,.068,26.312a7.225,7.225,0,0,1,.39-3.479c.173-.444.332-.823.488-1.159.126-.279.254-.559.352-.771l.048-.1c.131-.286.24-.525.347-.767l.032-.065c2.088-4.5,4.437-9.261,7.18-14.557L9,5.217c.265-.493.532-1.022.768-1.489l.012-.023a11.065,11.065,0,0,1,1.17-1.773A5.48,5.48,0,0,1,15.11,0a5.292,5.292,0,0,1,4.126,2,8.511,8.511,0,0,1,1.093,1.634l.077.137.023.046.005.01c.228.453.493.976.751,1.458l.1.193c2.454,4.681,4.87,9.579,7.18,14.558l.032.032c.113.257.234.52.337.744l.059.127c.118.254.226.492.352.771.105.229.213.492.308.724l.023.056.032.08.03.074c.031.076.062.151.093.225a6.039,6.039,0,0,1,.292,3.446A6.851,6.851,0,0,1,25.8,31.658,6.653,6.653,0,0,1,23.168,32.173ZM15.142,2.126a3.387,3.387,0,0,0-2.6,1.192,7.075,7.075,0,0,0-.91,1.417c-.125.232-.251.475-.373.71-.133.256-.271.52-.406.771l-.1.193c-2.366,4.507-4.771,9.372-7.148,14.46l-.032.065c-.256.538-.52,1.095-.747,1.61-.049.115-.1.225-.144.33a6.339,6.339,0,0,0-.279.7,5.284,5.284,0,0,0-.292,2.512,4.786,4.786,0,0,0,2.956,3.768,5.221,5.221,0,0,0,1.894.354,5.3,5.3,0,0,0,.576-.032,6.432,6.432,0,0,0,2.469-.838,14.619,14.619,0,0,0,3.7-3.124,18.58,18.58,0,0,1-3.931-7.15,6.681,6.681,0,0,1-.163-2.737,5.207,5.207,0,0,1,.878-2.191,5.6,5.6,0,0,1,4.581-2.286,5.461,5.461,0,0,1,4.581,2.286,5.207,5.207,0,0,1,.877,2.191,7.979,7.979,0,0,1-.163,2.737,18.154,18.154,0,0,1-3.931,7.118,15.19,15.19,0,0,0,3.7,3.124,6.436,6.436,0,0,0,2.47.837,5.484,5.484,0,0,0,.619.036,4.834,4.834,0,0,0,4.806-4.126,5.354,5.354,0,0,0-.227-2.479,6.317,6.317,0,0,0-.278-.7c-.047-.107-.1-.217-.145-.332-.128-.255-.251-.53-.369-.8s-.246-.553-.378-.814V20.9c-2.24-4.8-4.634-9.671-7.115-14.493l-.1-.193c-.131-.243-.264-.5-.393-.746s-.258-.5-.387-.735a7.075,7.075,0,0,0-.91-1.417A3.387,3.387,0,0,0,15.142,2.126Zm-.065,11.69a3.441,3.441,0,0,0-2.859,1.418,3.094,3.094,0,0,0-.519,1.353,5.114,5.114,0,0,0,.1,1.965,15.9,15.9,0,0,0,3.281,5.99,16.382,16.382,0,0,0,3.281-5.99,5.154,5.154,0,0,0,.1-1.965,3.11,3.11,0,0,0-.519-1.353A3.345,3.345,0,0,0,15.078,13.816ZM97.7,24.283a4.059,4.059,0,0,1-3.151-1.32v.547a.465.465,0,0,1-.455.451H91.459V6.023h3.119v6.8a4.167,4.167,0,0,1,3.151-1.288,6.218,6.218,0,0,1,4.451,1.812A6.405,6.405,0,0,1,104,17.906,6.2,6.2,0,0,1,97.7,24.283ZM97.21,14.4a3.517,3.517,0,0,0-2.632,1.32v4.316a3.2,3.2,0,0,0,2.632,1.32,3.388,3.388,0,0,0,3.671-3.478A3.387,3.387,0,0,0,97.21,14.4ZM71.056,24.283a4.062,4.062,0,0,1-3.151-1.32v.547a.465.465,0,0,1-.455.451H64.818V6.023h3.119v6.8a4.088,4.088,0,0,1,3.151-1.288,6.244,6.244,0,0,1,4.483,1.819,6.318,6.318,0,0,1,1.787,4.558A6.2,6.2,0,0,1,71.056,24.283ZM70.569,14.4a3.517,3.517,0,0,0-2.632,1.32v4.316a3.2,3.2,0,0,0,2.632,1.32,3.388,3.388,0,0,0,3.671-3.478A3.387,3.387,0,0,0,70.569,14.4ZM42.953,24.283a6.2,6.2,0,0,1-6.3-6.376,6.4,6.4,0,0,1,1.823-4.577,6.275,6.275,0,0,1,4.479-1.8A4.122,4.122,0,0,1,46.1,12.818V12.3a.465.465,0,0,1,.455-.451h2.632V23.961H46.56a.443.443,0,0,1-.455-.451v-.547A3.986,3.986,0,0,1,42.953,24.283Zm.519-9.855A3.388,3.388,0,0,0,39.8,17.906a3.388,3.388,0,0,0,3.671,3.478,3.245,3.245,0,0,0,2.632-1.32V15.748A3.3,3.3,0,0,0,43.473,14.428Zm46.362,9.565H86.716v-6.86c0-2.016-.674-2.8-2.4-2.8a3.476,3.476,0,0,0-2.534,1.192v8.438H78.658V11.852h2.47a.465.465,0,0,1,.454.451v.515A4.5,4.5,0,0,1,84.9,11.53a5.108,5.108,0,0,1,3.412,1.159c1.1.9,1.526,2.045,1.526,4.091v7.213Zm-30.506,0H56.209V11.852H58.84a.465.465,0,0,1,.455.451v.515a4.257,4.257,0,0,1,2.827-1.288,5.039,5.039,0,0,1,1.429.161v2.866l-.005,0a5.127,5.127,0,0,0-1.427-.2,3.633,3.633,0,0,0-2.79,1.173v8.469Zm-5.069-.032H51.141V11.852h3.118V23.96ZM52.7,10.177a2.1,2.1,0,0,1-2.111-2.093A2.08,2.08,0,0,1,52.7,5.99a2.093,2.093,0,1,1,0,4.187Z" fill="#dddddd"/>
	</g>
</svg>
