<svg xmlns="http://www.w3.org/2000/svg" width="20.575" height="20.571" viewBox="0 0 20.575 20.571">
  <g id="Icon" transform="translate(-0.714 -0.714)">
    <path id="Phone" d="M20.483,16.4l-.1-.309a2.893,2.893,0,0,0-1.768-1.671l-2.7-.738a2.649,2.649,0,0,0-2.315.605l-.978.978a10.377,10.377,0,0,1-7.3-7.3l.978-.978A2.646,2.646,0,0,0,6.9,4.667l-.737-2.7A2.89,2.89,0,0,0,4.487.2l-.309-.1A2.453,2.453,0,0,0,1.893.632L.43,2.1A2.73,2.73,0,0,0,0,3.1,17.272,17.272,0,0,0,17.429,20.571a2.719,2.719,0,0,0,1.051-.425l1.463-1.463A2.453,2.453,0,0,0,20.483,16.4Z" transform="translate(0.714 0.714)" fill="#ff6539"/>
  </g>
</svg>
