<svg xmlns="http://www.w3.org/2000/svg" width="148.918" height="143.918" viewBox="0 0 148.918 143.918">
  <g id="Group_84" data-name="Group 84" transform="translate(472.134 -883.366)" opacity="0.27">
    <path id="Path_73" data-name="Path 73" d="M-462.709,883.622l-3.965,3.965-3.965-3.965a.876.876,0,0,0-.619-.256.875.875,0,0,0-.619.256.875.875,0,0,0,0,1.238l3.965,3.965-3.965,3.965a.875.875,0,0,0,0,1.238.877.877,0,0,0,1.238,0l3.965-3.965,3.965,3.965a.877.877,0,0,0,1.238,0,.877.877,0,0,0,0-1.238l-3.966-3.965,3.966-3.965a.877.877,0,0,0,0-1.238A.877.877,0,0,0-462.709,883.622Z" fill="#313134"/>
    <path id="Path_74" data-name="Path 74" d="M-439.709,883.622l-3.965,3.965-3.965-3.965a.876.876,0,0,0-.619-.256.875.875,0,0,0-.619.256.875.875,0,0,0,0,1.238l3.965,3.965-3.965,3.965a.875.875,0,0,0,0,1.238.877.877,0,0,0,1.238,0l3.965-3.965,3.965,3.965a.877.877,0,0,0,1.238,0,.877.877,0,0,0,0-1.238l-3.966-3.965,3.966-3.965a.877.877,0,0,0,0-1.238A.877.877,0,0,0-439.709,883.622Z" fill="#313134"/>
    <path id="Path_75" data-name="Path 75" d="M-416.709,883.622l-3.965,3.965-3.965-3.965a.876.876,0,0,0-.619-.256.875.875,0,0,0-.619.256.875.875,0,0,0,0,1.238l3.965,3.965-3.965,3.965a.875.875,0,0,0,0,1.238.877.877,0,0,0,1.238,0l3.965-3.965,3.965,3.965a.877.877,0,0,0,1.238,0,.877.877,0,0,0,0-1.238l-3.966-3.965,3.966-3.965a.877.877,0,0,0,0-1.238A.877.877,0,0,0-416.709,883.622Z" fill="#313134"/>
    <path id="Path_76" data-name="Path 76" d="M-393.709,883.622l-3.965,3.965-3.965-3.965a.876.876,0,0,0-.619-.256.875.875,0,0,0-.619.256.875.875,0,0,0,0,1.238l3.965,3.965-3.965,3.965a.875.875,0,0,0,0,1.238.877.877,0,0,0,1.238,0l3.965-3.965,3.965,3.965a.877.877,0,0,0,1.238,0,.877.877,0,0,0,0-1.238l-3.966-3.965,3.966-3.965a.877.877,0,0,0,0-1.238A.877.877,0,0,0-393.709,883.622Z" fill="#313134"/>
    <path id="Path_77" data-name="Path 77" d="M-370.709,883.622l-3.965,3.965-3.965-3.965a.876.876,0,0,0-.619-.256.875.875,0,0,0-.619.256.875.875,0,0,0,0,1.238l3.965,3.965-3.965,3.965a.875.875,0,0,0,0,1.238.877.877,0,0,0,1.238,0l3.965-3.965,3.965,3.965a.877.877,0,0,0,1.238,0,.877.877,0,0,0,0-1.238l-3.966-3.965,3.966-3.965a.877.877,0,0,0,0-1.238A.877.877,0,0,0-370.709,883.622Z" fill="#313134"/>
    <path id="Path_78" data-name="Path 78" d="M-347.709,883.622l-3.965,3.965-3.965-3.965a.876.876,0,0,0-.619-.256.875.875,0,0,0-.619.256.875.875,0,0,0,0,1.238l3.965,3.965-3.965,3.965a.875.875,0,0,0,0,1.238.877.877,0,0,0,1.238,0l3.965-3.965,3.965,3.965a.877.877,0,0,0,1.238,0,.877.877,0,0,0,0-1.238l-3.966-3.965,3.966-3.965a.877.877,0,0,0,0-1.238A.877.877,0,0,0-347.709,883.622Z" fill="#313134"/>
    <path id="Path_79" data-name="Path 79" d="M-324.709,883.622l-3.965,3.965-3.965-3.965a.876.876,0,0,0-.619-.256.875.875,0,0,0-.619.256.875.875,0,0,0,0,1.238l3.965,3.965-3.965,3.965a.875.875,0,0,0,0,1.238.877.877,0,0,0,1.238,0l3.965-3.965,3.965,3.965a.877.877,0,0,0,1.238,0,.877.877,0,0,0,0-1.238l-3.966-3.965,3.966-3.965a.877.877,0,0,0,0-1.238A.877.877,0,0,0-324.709,883.622Z" fill="#313134"/>
    <path id="Path_80" data-name="Path 80" d="M-462.709,902.622l-3.965,3.965-3.965-3.965a.876.876,0,0,0-.619-.256.875.875,0,0,0-.619.256.875.875,0,0,0,0,1.238l3.965,3.965-3.965,3.965a.875.875,0,0,0,0,1.238.877.877,0,0,0,1.238,0l3.965-3.965,3.965,3.965a.877.877,0,0,0,1.238,0,.877.877,0,0,0,0-1.238l-3.966-3.965,3.966-3.965a.877.877,0,0,0,0-1.238A.877.877,0,0,0-462.709,902.622Z" fill="#313134"/>
    <path id="Path_81" data-name="Path 81" d="M-439.709,902.622l-3.965,3.965-3.965-3.965a.876.876,0,0,0-.619-.256.875.875,0,0,0-.619.256.875.875,0,0,0,0,1.238l3.965,3.965-3.965,3.965a.875.875,0,0,0,0,1.238.877.877,0,0,0,1.238,0l3.965-3.965,3.965,3.965a.877.877,0,0,0,1.238,0,.877.877,0,0,0,0-1.238l-3.966-3.965,3.966-3.965a.877.877,0,0,0,0-1.238A.877.877,0,0,0-439.709,902.622Z" fill="#313134"/>
    <path id="Path_82" data-name="Path 82" d="M-416.709,902.622l-3.965,3.965-3.965-3.965a.876.876,0,0,0-.619-.256.875.875,0,0,0-.619.256.875.875,0,0,0,0,1.238l3.965,3.965-3.965,3.965a.875.875,0,0,0,0,1.238.877.877,0,0,0,1.238,0l3.965-3.965,3.965,3.965a.877.877,0,0,0,1.238,0,.877.877,0,0,0,0-1.238l-3.966-3.965,3.966-3.965a.877.877,0,0,0,0-1.238A.877.877,0,0,0-416.709,902.622Z" fill="#313134"/>
    <path id="Path_83" data-name="Path 83" d="M-393.709,902.622l-3.965,3.965-3.965-3.965a.876.876,0,0,0-.619-.256.875.875,0,0,0-.619.256.875.875,0,0,0,0,1.238l3.965,3.965-3.965,3.965a.875.875,0,0,0,0,1.238.877.877,0,0,0,1.238,0l3.965-3.965,3.965,3.965a.877.877,0,0,0,1.238,0,.877.877,0,0,0,0-1.238l-3.966-3.965,3.966-3.965a.877.877,0,0,0,0-1.238A.877.877,0,0,0-393.709,902.622Z" fill="#313134"/>
    <path id="Path_84" data-name="Path 84" d="M-370.709,902.622l-3.965,3.965-3.965-3.965a.876.876,0,0,0-.619-.256.875.875,0,0,0-.619.256.875.875,0,0,0,0,1.238l3.965,3.965-3.965,3.965a.875.875,0,0,0,0,1.238.877.877,0,0,0,1.238,0l3.965-3.965,3.965,3.965a.877.877,0,0,0,1.238,0,.877.877,0,0,0,0-1.238l-3.966-3.965,3.966-3.965a.877.877,0,0,0,0-1.238A.877.877,0,0,0-370.709,902.622Z" fill="#313134"/>
    <path id="Path_85" data-name="Path 85" d="M-347.709,902.622l-3.965,3.965-3.965-3.965a.876.876,0,0,0-.619-.256.875.875,0,0,0-.619.256.875.875,0,0,0,0,1.238l3.965,3.965-3.965,3.965a.875.875,0,0,0,0,1.238.877.877,0,0,0,1.238,0l3.965-3.965,3.965,3.965a.877.877,0,0,0,1.238,0,.877.877,0,0,0,0-1.238l-3.966-3.965,3.966-3.965a.877.877,0,0,0,0-1.238A.877.877,0,0,0-347.709,902.622Z" fill="#313134"/>
    <path id="Path_86" data-name="Path 86" d="M-324.709,902.622l-3.965,3.965-3.965-3.965a.876.876,0,0,0-.619-.256.875.875,0,0,0-.619.256.875.875,0,0,0,0,1.238l3.965,3.965-3.965,3.965a.875.875,0,0,0,0,1.238.877.877,0,0,0,1.238,0l3.965-3.965,3.965,3.965a.877.877,0,0,0,1.238,0,.877.877,0,0,0,0-1.238l-3.966-3.965,3.966-3.965a.877.877,0,0,0,0-1.238A.877.877,0,0,0-324.709,902.622Z" fill="#313134"/>
    <path id="Path_87" data-name="Path 87" d="M-462.709,921.622l-3.965,3.965-3.965-3.965a.876.876,0,0,0-.619-.256.875.875,0,0,0-.619.256.875.875,0,0,0,0,1.238l3.965,3.965-3.965,3.965a.875.875,0,0,0,0,1.238.877.877,0,0,0,1.238,0l3.965-3.965,3.965,3.965a.877.877,0,0,0,1.238,0,.877.877,0,0,0,0-1.238l-3.966-3.965,3.966-3.965a.877.877,0,0,0,0-1.238A.877.877,0,0,0-462.709,921.622Z" fill="#313134"/>
    <path id="Path_88" data-name="Path 88" d="M-439.709,921.622l-3.965,3.965-3.965-3.965a.876.876,0,0,0-.619-.256.875.875,0,0,0-.619.256.875.875,0,0,0,0,1.238l3.965,3.965-3.965,3.965a.875.875,0,0,0,0,1.238.877.877,0,0,0,1.238,0l3.965-3.965,3.965,3.965a.877.877,0,0,0,1.238,0,.877.877,0,0,0,0-1.238l-3.966-3.965,3.966-3.965a.877.877,0,0,0,0-1.238A.877.877,0,0,0-439.709,921.622Z" fill="#313134"/>
    <path id="Path_89" data-name="Path 89" d="M-416.709,921.622l-3.965,3.965-3.965-3.965a.876.876,0,0,0-.619-.256.875.875,0,0,0-.619.256.875.875,0,0,0,0,1.238l3.965,3.965-3.965,3.965a.875.875,0,0,0,0,1.238.877.877,0,0,0,1.238,0l3.965-3.965,3.965,3.965a.877.877,0,0,0,1.238,0,.877.877,0,0,0,0-1.238l-3.966-3.965,3.966-3.965a.877.877,0,0,0,0-1.238A.877.877,0,0,0-416.709,921.622Z" fill="#313134"/>
    <path id="Path_90" data-name="Path 90" d="M-393.709,921.622l-3.965,3.965-3.965-3.965a.876.876,0,0,0-.619-.256.875.875,0,0,0-.619.256.875.875,0,0,0,0,1.238l3.965,3.965-3.965,3.965a.875.875,0,0,0,0,1.238.877.877,0,0,0,1.238,0l3.965-3.965,3.965,3.965a.877.877,0,0,0,1.238,0,.877.877,0,0,0,0-1.238l-3.966-3.965,3.966-3.965a.877.877,0,0,0,0-1.238A.877.877,0,0,0-393.709,921.622Z" fill="#313134"/>
    <path id="Path_91" data-name="Path 91" d="M-370.709,921.622l-3.965,3.965-3.965-3.965a.876.876,0,0,0-.619-.256.875.875,0,0,0-.619.256.875.875,0,0,0,0,1.238l3.965,3.965-3.965,3.965a.875.875,0,0,0,0,1.238.877.877,0,0,0,1.238,0l3.965-3.965,3.965,3.965a.877.877,0,0,0,1.238,0,.877.877,0,0,0,0-1.238l-3.966-3.965,3.966-3.965a.877.877,0,0,0,0-1.238A.877.877,0,0,0-370.709,921.622Z" fill="#313134"/>
    <path id="Path_92" data-name="Path 92" d="M-347.709,921.622l-3.965,3.965-3.965-3.965a.876.876,0,0,0-.619-.256.875.875,0,0,0-.619.256.875.875,0,0,0,0,1.238l3.965,3.965-3.965,3.965a.875.875,0,0,0,0,1.238.877.877,0,0,0,1.238,0l3.965-3.965,3.965,3.965a.877.877,0,0,0,1.238,0,.877.877,0,0,0,0-1.238l-3.966-3.965,3.966-3.965a.877.877,0,0,0,0-1.238A.877.877,0,0,0-347.709,921.622Z" fill="#313134"/>
    <path id="Path_93" data-name="Path 93" d="M-324.709,921.622l-3.965,3.965-3.965-3.965a.876.876,0,0,0-.619-.256.875.875,0,0,0-.619.256.875.875,0,0,0,0,1.238l3.965,3.965-3.965,3.965a.875.875,0,0,0,0,1.238.877.877,0,0,0,1.238,0l3.965-3.965,3.965,3.965a.877.877,0,0,0,1.238,0,.877.877,0,0,0,0-1.238l-3.966-3.965,3.966-3.965a.877.877,0,0,0,0-1.238A.877.877,0,0,0-324.709,921.622Z" fill="#313134"/>
    <path id="Path_94" data-name="Path 94" d="M-462.709,940.622l-3.965,3.965-3.965-3.965a.876.876,0,0,0-.619-.256.875.875,0,0,0-.619.256.875.875,0,0,0,0,1.238l3.965,3.965-3.965,3.965a.875.875,0,0,0,0,1.238.877.877,0,0,0,1.238,0l3.965-3.965,3.965,3.965a.877.877,0,0,0,1.238,0,.877.877,0,0,0,0-1.238l-3.966-3.965,3.966-3.965a.877.877,0,0,0,0-1.238A.877.877,0,0,0-462.709,940.622Z" fill="#313134"/>
    <path id="Path_95" data-name="Path 95" d="M-439.709,940.622l-3.965,3.965-3.965-3.965a.876.876,0,0,0-.619-.256.875.875,0,0,0-.619.256.875.875,0,0,0,0,1.238l3.965,3.965-3.965,3.965a.875.875,0,0,0,0,1.238.877.877,0,0,0,1.238,0l3.965-3.965,3.965,3.965a.877.877,0,0,0,1.238,0,.877.877,0,0,0,0-1.238l-3.966-3.965,3.966-3.965a.877.877,0,0,0,0-1.238A.877.877,0,0,0-439.709,940.622Z" fill="#313134"/>
    <path id="Path_96" data-name="Path 96" d="M-416.709,940.622l-3.965,3.965-3.965-3.965a.876.876,0,0,0-.619-.256.875.875,0,0,0-.619.256.875.875,0,0,0,0,1.238l3.965,3.965-3.965,3.965a.875.875,0,0,0,0,1.238.877.877,0,0,0,1.238,0l3.965-3.965,3.965,3.965a.877.877,0,0,0,1.238,0,.877.877,0,0,0,0-1.238l-3.966-3.965,3.966-3.965a.877.877,0,0,0,0-1.238A.877.877,0,0,0-416.709,940.622Z" fill="#313134"/>
    <path id="Path_97" data-name="Path 97" d="M-393.709,940.622l-3.965,3.965-3.965-3.965a.876.876,0,0,0-.619-.256.875.875,0,0,0-.619.256.875.875,0,0,0,0,1.238l3.965,3.965-3.965,3.965a.875.875,0,0,0,0,1.238.877.877,0,0,0,1.238,0l3.965-3.965,3.965,3.965a.877.877,0,0,0,1.238,0,.877.877,0,0,0,0-1.238l-3.966-3.965,3.966-3.965a.877.877,0,0,0,0-1.238A.877.877,0,0,0-393.709,940.622Z" fill="#313134"/>
    <path id="Path_98" data-name="Path 98" d="M-370.709,940.622l-3.965,3.965-3.965-3.965a.876.876,0,0,0-.619-.256.875.875,0,0,0-.619.256.875.875,0,0,0,0,1.238l3.965,3.965-3.965,3.965a.875.875,0,0,0,0,1.238.877.877,0,0,0,1.238,0l3.965-3.965,3.965,3.965a.877.877,0,0,0,1.238,0,.877.877,0,0,0,0-1.238l-3.966-3.965,3.966-3.965a.877.877,0,0,0,0-1.238A.877.877,0,0,0-370.709,940.622Z" fill="#313134"/>
    <path id="Path_99" data-name="Path 99" d="M-347.709,940.622l-3.965,3.965-3.965-3.965a.876.876,0,0,0-.619-.256.875.875,0,0,0-.619.256.875.875,0,0,0,0,1.238l3.965,3.965-3.965,3.965a.875.875,0,0,0,0,1.238.877.877,0,0,0,1.238,0l3.965-3.965,3.965,3.965a.877.877,0,0,0,1.238,0,.877.877,0,0,0,0-1.238l-3.966-3.965,3.966-3.965a.877.877,0,0,0,0-1.238A.877.877,0,0,0-347.709,940.622Z" fill="#313134"/>
    <path id="Path_100" data-name="Path 100" d="M-324.709,940.622l-3.965,3.965-3.965-3.965a.876.876,0,0,0-.619-.256.875.875,0,0,0-.619.256.875.875,0,0,0,0,1.238l3.965,3.965-3.965,3.965a.875.875,0,0,0,0,1.238.877.877,0,0,0,1.238,0l3.965-3.965,3.965,3.965a.877.877,0,0,0,1.238,0,.877.877,0,0,0,0-1.238l-3.966-3.965,3.966-3.965a.877.877,0,0,0,0-1.238A.877.877,0,0,0-324.709,940.622Z" fill="#313134"/>
    <path id="Path_101" data-name="Path 101" d="M-462.709,959.622l-3.965,3.965-3.965-3.965a.876.876,0,0,0-.619-.256.875.875,0,0,0-.619.256.875.875,0,0,0,0,1.238l3.965,3.965-3.965,3.965a.875.875,0,0,0,0,1.238.877.877,0,0,0,1.238,0l3.965-3.965,3.965,3.965a.877.877,0,0,0,1.238,0,.877.877,0,0,0,0-1.238l-3.966-3.965,3.966-3.965a.877.877,0,0,0,0-1.238A.877.877,0,0,0-462.709,959.622Z" fill="#313134"/>
    <path id="Path_102" data-name="Path 102" d="M-439.709,959.622l-3.965,3.965-3.965-3.965a.876.876,0,0,0-.619-.256.875.875,0,0,0-.619.256.875.875,0,0,0,0,1.238l3.965,3.965-3.965,3.965a.875.875,0,0,0,0,1.238.877.877,0,0,0,1.238,0l3.965-3.965,3.965,3.965a.877.877,0,0,0,1.238,0,.877.877,0,0,0,0-1.238l-3.966-3.965,3.966-3.965a.877.877,0,0,0,0-1.238A.877.877,0,0,0-439.709,959.622Z" fill="#313134"/>
    <path id="Path_103" data-name="Path 103" d="M-416.709,959.622l-3.965,3.965-3.965-3.965a.876.876,0,0,0-.619-.256.875.875,0,0,0-.619.256.875.875,0,0,0,0,1.238l3.965,3.965-3.965,3.965a.875.875,0,0,0,0,1.238.877.877,0,0,0,1.238,0l3.965-3.965,3.965,3.965a.877.877,0,0,0,1.238,0,.877.877,0,0,0,0-1.238l-3.966-3.965,3.966-3.965a.877.877,0,0,0,0-1.238A.877.877,0,0,0-416.709,959.622Z" fill="#313134"/>
    <path id="Path_104" data-name="Path 104" d="M-393.709,959.622l-3.965,3.965-3.965-3.965a.876.876,0,0,0-.619-.256.875.875,0,0,0-.619.256.875.875,0,0,0,0,1.238l3.965,3.965-3.965,3.965a.875.875,0,0,0,0,1.238.877.877,0,0,0,1.238,0l3.965-3.965,3.965,3.965a.877.877,0,0,0,1.238,0,.877.877,0,0,0,0-1.238l-3.966-3.965,3.966-3.965a.877.877,0,0,0,0-1.238A.877.877,0,0,0-393.709,959.622Z" fill="#313134"/>
    <path id="Path_105" data-name="Path 105" d="M-370.709,959.622l-3.965,3.965-3.965-3.965a.876.876,0,0,0-.619-.256.875.875,0,0,0-.619.256.875.875,0,0,0,0,1.238l3.965,3.965-3.965,3.965a.875.875,0,0,0,0,1.238.877.877,0,0,0,1.238,0l3.965-3.965,3.965,3.965a.877.877,0,0,0,1.238,0,.877.877,0,0,0,0-1.238l-3.966-3.965,3.966-3.965a.877.877,0,0,0,0-1.238A.877.877,0,0,0-370.709,959.622Z" fill="#313134"/>
    <path id="Path_106" data-name="Path 106" d="M-347.709,959.622l-3.965,3.965-3.965-3.965a.876.876,0,0,0-.619-.256.875.875,0,0,0-.619.256.875.875,0,0,0,0,1.238l3.965,3.965-3.965,3.965a.875.875,0,0,0,0,1.238.877.877,0,0,0,1.238,0l3.965-3.965,3.965,3.965a.877.877,0,0,0,1.238,0,.877.877,0,0,0,0-1.238l-3.966-3.965,3.966-3.965a.877.877,0,0,0,0-1.238A.877.877,0,0,0-347.709,959.622Z" fill="#313134"/>
    <path id="Path_107" data-name="Path 107" d="M-324.709,959.622l-3.965,3.965-3.965-3.965a.876.876,0,0,0-.619-.256.875.875,0,0,0-.619.256.875.875,0,0,0,0,1.238l3.965,3.965-3.965,3.965a.875.875,0,0,0,0,1.238.877.877,0,0,0,1.238,0l3.965-3.965,3.965,3.965a.877.877,0,0,0,1.238,0,.877.877,0,0,0,0-1.238l-3.966-3.965,3.966-3.965a.877.877,0,0,0,0-1.238A.877.877,0,0,0-324.709,959.622Z" fill="#313134"/>
    <path id="Path_108" data-name="Path 108" d="M-462.709,978.622l-3.965,3.965-3.965-3.965a.876.876,0,0,0-.619-.256.875.875,0,0,0-.619.256.875.875,0,0,0,0,1.238l3.965,3.965-3.965,3.965a.875.875,0,0,0,0,1.238.877.877,0,0,0,1.238,0l3.965-3.965,3.965,3.965a.877.877,0,0,0,1.238,0,.877.877,0,0,0,0-1.238l-3.966-3.965,3.966-3.965a.877.877,0,0,0,0-1.238A.877.877,0,0,0-462.709,978.622Z" fill="#313134"/>
    <path id="Path_109" data-name="Path 109" d="M-439.709,978.622l-3.965,3.965-3.965-3.965a.876.876,0,0,0-.619-.256.875.875,0,0,0-.619.256.875.875,0,0,0,0,1.238l3.965,3.965-3.965,3.965a.875.875,0,0,0,0,1.238.877.877,0,0,0,1.238,0l3.965-3.965,3.965,3.965a.877.877,0,0,0,1.238,0,.877.877,0,0,0,0-1.238l-3.966-3.965,3.966-3.965a.877.877,0,0,0,0-1.238A.877.877,0,0,0-439.709,978.622Z" fill="#313134"/>
    <path id="Path_110" data-name="Path 110" d="M-416.709,978.622l-3.965,3.965-3.965-3.965a.876.876,0,0,0-.619-.256.875.875,0,0,0-.619.256.875.875,0,0,0,0,1.238l3.965,3.965-3.965,3.965a.875.875,0,0,0,0,1.238.877.877,0,0,0,1.238,0l3.965-3.965,3.965,3.965a.877.877,0,0,0,1.238,0,.877.877,0,0,0,0-1.238l-3.966-3.965,3.966-3.965a.877.877,0,0,0,0-1.238A.877.877,0,0,0-416.709,978.622Z" fill="#313134"/>
    <path id="Path_111" data-name="Path 111" d="M-393.709,978.622l-3.965,3.965-3.965-3.965a.876.876,0,0,0-.619-.256.875.875,0,0,0-.619.256.875.875,0,0,0,0,1.238l3.965,3.965-3.965,3.965a.875.875,0,0,0,0,1.238.877.877,0,0,0,1.238,0l3.965-3.965,3.965,3.965a.877.877,0,0,0,1.238,0,.877.877,0,0,0,0-1.238l-3.966-3.965,3.966-3.965a.877.877,0,0,0,0-1.238A.877.877,0,0,0-393.709,978.622Z" fill="#313134"/>
    <path id="Path_112" data-name="Path 112" d="M-370.709,978.622l-3.965,3.965-3.965-3.965a.876.876,0,0,0-.619-.256.875.875,0,0,0-.619.256.875.875,0,0,0,0,1.238l3.965,3.965-3.965,3.965a.875.875,0,0,0,0,1.238.877.877,0,0,0,1.238,0l3.965-3.965,3.965,3.965a.877.877,0,0,0,1.238,0,.877.877,0,0,0,0-1.238l-3.966-3.965,3.966-3.965a.877.877,0,0,0,0-1.238A.877.877,0,0,0-370.709,978.622Z" fill="#313134"/>
    <path id="Path_113" data-name="Path 113" d="M-347.709,978.622l-3.965,3.965-3.965-3.965a.876.876,0,0,0-.619-.256.875.875,0,0,0-.619.256.875.875,0,0,0,0,1.238l3.965,3.965-3.965,3.965a.875.875,0,0,0,0,1.238.877.877,0,0,0,1.238,0l3.965-3.965,3.965,3.965a.877.877,0,0,0,1.238,0,.877.877,0,0,0,0-1.238l-3.966-3.965,3.966-3.965a.877.877,0,0,0,0-1.238A.877.877,0,0,0-347.709,978.622Z" fill="#313134"/>
    <path id="Path_114" data-name="Path 114" d="M-324.709,978.622l-3.965,3.965-3.965-3.965a.876.876,0,0,0-.619-.256.875.875,0,0,0-.619.256.875.875,0,0,0,0,1.238l3.965,3.965-3.965,3.965a.875.875,0,0,0,0,1.238.877.877,0,0,0,1.238,0l3.965-3.965,3.965,3.965a.877.877,0,0,0,1.238,0,.877.877,0,0,0,0-1.238l-3.966-3.965,3.966-3.965a.877.877,0,0,0,0-1.238A.877.877,0,0,0-324.709,978.622Z" fill="#313134"/>
    <path id="Path_115" data-name="Path 115" d="M-462.709,997.622l-3.965,3.965-3.965-3.965a.876.876,0,0,0-.619-.256.875.875,0,0,0-.619.256.875.875,0,0,0,0,1.238l3.965,3.965-3.965,3.965a.875.875,0,0,0,0,1.238.877.877,0,0,0,1.238,0l3.965-3.965,3.965,3.965a.877.877,0,0,0,1.238,0,.877.877,0,0,0,0-1.238l-3.966-3.965,3.966-3.965a.877.877,0,0,0,0-1.238A.877.877,0,0,0-462.709,997.622Z" fill="#313134"/>
    <path id="Path_116" data-name="Path 116" d="M-439.709,997.622l-3.965,3.965-3.965-3.965a.876.876,0,0,0-.619-.256.875.875,0,0,0-.619.256.875.875,0,0,0,0,1.238l3.965,3.965-3.965,3.965a.875.875,0,0,0,0,1.238.877.877,0,0,0,1.238,0l3.965-3.965,3.965,3.965a.877.877,0,0,0,1.238,0,.877.877,0,0,0,0-1.238l-3.966-3.965,3.966-3.965a.877.877,0,0,0,0-1.238A.877.877,0,0,0-439.709,997.622Z" fill="#313134"/>
    <path id="Path_117" data-name="Path 117" d="M-416.709,997.622l-3.965,3.965-3.965-3.965a.876.876,0,0,0-.619-.256.875.875,0,0,0-.619.256.875.875,0,0,0,0,1.238l3.965,3.965-3.965,3.965a.875.875,0,0,0,0,1.238.877.877,0,0,0,1.238,0l3.965-3.965,3.965,3.965a.877.877,0,0,0,1.238,0,.877.877,0,0,0,0-1.238l-3.966-3.965,3.966-3.965a.877.877,0,0,0,0-1.238A.877.877,0,0,0-416.709,997.622Z" fill="#313134"/>
    <path id="Path_118" data-name="Path 118" d="M-393.709,997.622l-3.965,3.965-3.965-3.965a.876.876,0,0,0-.619-.256.875.875,0,0,0-.619.256.875.875,0,0,0,0,1.238l3.965,3.965-3.965,3.965a.875.875,0,0,0,0,1.238.877.877,0,0,0,1.238,0l3.965-3.965,3.965,3.965a.877.877,0,0,0,1.238,0,.877.877,0,0,0,0-1.238l-3.966-3.965,3.966-3.965a.877.877,0,0,0,0-1.238A.877.877,0,0,0-393.709,997.622Z" fill="#313134"/>
    <path id="Path_119" data-name="Path 119" d="M-370.709,997.622l-3.965,3.965-3.965-3.965a.876.876,0,0,0-.619-.256.875.875,0,0,0-.619.256.875.875,0,0,0,0,1.238l3.965,3.965-3.965,3.965a.875.875,0,0,0,0,1.238.877.877,0,0,0,1.238,0l3.965-3.965,3.965,3.965a.877.877,0,0,0,1.238,0,.877.877,0,0,0,0-1.238l-3.966-3.965,3.966-3.965a.877.877,0,0,0,0-1.238A.877.877,0,0,0-370.709,997.622Z" fill="#313134"/>
    <path id="Path_120" data-name="Path 120" d="M-347.709,997.622l-3.965,3.965-3.965-3.965a.876.876,0,0,0-.619-.256.875.875,0,0,0-.619.256.875.875,0,0,0,0,1.238l3.965,3.965-3.965,3.965a.875.875,0,0,0,0,1.238.877.877,0,0,0,1.238,0l3.965-3.965,3.965,3.965a.877.877,0,0,0,1.238,0,.877.877,0,0,0,0-1.238l-3.966-3.965,3.966-3.965a.877.877,0,0,0,0-1.238A.877.877,0,0,0-347.709,997.622Z" fill="#313134"/>
    <path id="Path_121" data-name="Path 121" d="M-324.709,997.622l-3.965,3.965-3.965-3.965a.876.876,0,0,0-.619-.256.875.875,0,0,0-.619.256.875.875,0,0,0,0,1.238l3.965,3.965-3.965,3.965a.875.875,0,0,0,0,1.238.877.877,0,0,0,1.238,0l3.965-3.965,3.965,3.965a.877.877,0,0,0,1.238,0,.877.877,0,0,0,0-1.238l-3.966-3.965,3.966-3.965a.877.877,0,0,0,0-1.238A.877.877,0,0,0-324.709,997.622Z" fill="#313134"/>
    <path id="Path_122" data-name="Path 122" d="M-462.709,1016.622l-3.965,3.965-3.965-3.965a.876.876,0,0,0-.619-.256.875.875,0,0,0-.619.256.875.875,0,0,0,0,1.238l3.965,3.965-3.965,3.965a.875.875,0,0,0,0,1.238.877.877,0,0,0,1.238,0l3.965-3.965,3.965,3.965a.877.877,0,0,0,1.238,0,.877.877,0,0,0,0-1.238l-3.966-3.965,3.966-3.965a.877.877,0,0,0,0-1.238A.877.877,0,0,0-462.709,1016.622Z" fill="#313134"/>
    <path id="Path_123" data-name="Path 123" d="M-439.709,1016.622l-3.965,3.965-3.965-3.965a.876.876,0,0,0-.619-.256.875.875,0,0,0-.619.256.875.875,0,0,0,0,1.238l3.965,3.965-3.965,3.965a.875.875,0,0,0,0,1.238.877.877,0,0,0,1.238,0l3.965-3.965,3.965,3.965a.877.877,0,0,0,1.238,0,.877.877,0,0,0,0-1.238l-3.966-3.965,3.966-3.965a.877.877,0,0,0,0-1.238A.877.877,0,0,0-439.709,1016.622Z" fill="#313134"/>
    <path id="Path_124" data-name="Path 124" d="M-416.709,1016.622l-3.965,3.965-3.965-3.965a.876.876,0,0,0-.619-.256.875.875,0,0,0-.619.256.875.875,0,0,0,0,1.238l3.965,3.965-3.965,3.965a.875.875,0,0,0,0,1.238.877.877,0,0,0,1.238,0l3.965-3.965,3.965,3.965a.877.877,0,0,0,1.238,0,.877.877,0,0,0,0-1.238l-3.966-3.965,3.966-3.965a.877.877,0,0,0,0-1.238A.877.877,0,0,0-416.709,1016.622Z" fill="#313134"/>
    <path id="Path_125" data-name="Path 125" d="M-393.709,1016.622l-3.965,3.965-3.965-3.965a.876.876,0,0,0-.619-.256.875.875,0,0,0-.619.256.875.875,0,0,0,0,1.238l3.965,3.965-3.965,3.965a.875.875,0,0,0,0,1.238.877.877,0,0,0,1.238,0l3.965-3.965,3.965,3.965a.877.877,0,0,0,1.238,0,.877.877,0,0,0,0-1.238l-3.966-3.965,3.966-3.965a.877.877,0,0,0,0-1.238A.877.877,0,0,0-393.709,1016.622Z" fill="#313134"/>
    <path id="Path_126" data-name="Path 126" d="M-370.709,1016.622l-3.965,3.965-3.965-3.965a.876.876,0,0,0-.619-.256.875.875,0,0,0-.619.256.875.875,0,0,0,0,1.238l3.965,3.965-3.965,3.965a.875.875,0,0,0,0,1.238.877.877,0,0,0,1.238,0l3.965-3.965,3.965,3.965a.877.877,0,0,0,1.238,0,.877.877,0,0,0,0-1.238l-3.966-3.965,3.966-3.965a.877.877,0,0,0,0-1.238A.877.877,0,0,0-370.709,1016.622Z" fill="#313134"/>
    <path id="Path_127" data-name="Path 127" d="M-347.709,1016.622l-3.965,3.965-3.965-3.965a.876.876,0,0,0-.619-.256.875.875,0,0,0-.619.256.875.875,0,0,0,0,1.238l3.965,3.965-3.965,3.965a.875.875,0,0,0,0,1.238.877.877,0,0,0,1.238,0l3.965-3.965,3.965,3.965a.877.877,0,0,0,1.238,0,.877.877,0,0,0,0-1.238l-3.966-3.965,3.966-3.965a.877.877,0,0,0,0-1.238A.877.877,0,0,0-347.709,1016.622Z" fill="#313134"/>
    <path id="Path_128" data-name="Path 128" d="M-324.709,1016.622l-3.965,3.965-3.965-3.965a.876.876,0,0,0-.619-.256.875.875,0,0,0-.619.256.875.875,0,0,0,0,1.238l3.965,3.965-3.965,3.965a.875.875,0,0,0,0,1.238.877.877,0,0,0,1.238,0l3.965-3.965,3.965,3.965a.877.877,0,0,0,1.238,0,.877.877,0,0,0,0-1.238l-3.966-3.965,3.966-3.965a.877.877,0,0,0,0-1.238A.877.877,0,0,0-324.709,1016.622Z" fill="#313134"/>
  </g>
</svg>
