<svg xmlns="http://www.w3.org/2000/svg" width="123.999" height="23.925" viewBox="0 0 123.999 23.925">
	<g id="Item_2" data-name="Item 2" transform="translate(0 0)">
		<path id="Shape" d="M14.353,23.925h0l-7.2-4.5,7.2-4.5,7.195,4.5-7.193,4.5ZM7.2,18h0L0,13.462l7.2-4.5L0,4.5,7.2,0,14.39,4.5,7.2,9l7.195,4.5L7.2,18Zm14.35,0h0L14.39,13.462l7.2-4.5L14.39,4.5,21.547,0l7.2,4.5L21.547,9l7.2,4.5L21.547,18Z" fill="#dddddd"/>
		<path id="Shape-2" data-name="Shape" d="M36.97,20.325,37.009,4.05h2.678l.307,2.288a4.112,4.112,0,0,1,1.511-1.87,4.487,4.487,0,0,1,2.545-.717c3.259,0,5.2,2.355,5.2,6.3v.338a6.559,6.559,0,0,1-1.512,4.528,4.859,4.859,0,0,1-3.693,1.547,4.059,4.059,0,0,1-3.942-2.25v6.111H36.97ZM43.056,6.45a2.735,2.735,0,0,0-2.167.956,4.046,4.046,0,0,0-.818,2.644v.225a3.883,3.883,0,0,0,.8,2.545,2.716,2.716,0,0,0,2.148.942,2.875,2.875,0,0,0,2.182-.9,3.706,3.706,0,0,0,.8-2.555V10.05a4.035,4.035,0,0,0-.841-2.7A2.708,2.708,0,0,0,43.056,6.45ZM70.879,16.463a6.5,6.5,0,0,1-4.612-1.58,6.045,6.045,0,0,1-1.626-4.533v-.337a6.228,6.228,0,0,1,1.77-4.649,7.035,7.035,0,0,1,8.965,0,6.256,6.256,0,0,1,1.742,4.649v.337A6.044,6.044,0,0,1,75.39,14.9,6.429,6.429,0,0,1,70.879,16.463Zm0-10.05a2.756,2.756,0,0,0-2.166.914,4.058,4.058,0,0,0-.818,2.686v.3c0,2.137,1.116,3.413,2.984,3.413a2.914,2.914,0,0,0,2.182-.9,3.645,3.645,0,0,0,.8-2.508v-.3a4.072,4.072,0,0,0-.8-2.643A2.734,2.734,0,0,0,70.879,6.413Zm-12.82,10.05A4.119,4.119,0,0,1,54,13.912l-.267,2.213H50.978V0h3.138V6.188A4.047,4.047,0,0,1,58.135,3.75,4.891,4.891,0,0,1,61.8,5.279a6.583,6.583,0,0,1,1.459,4.509v.375a7.11,7.11,0,0,1-1.426,4.655A4.775,4.775,0,0,1,58.058,16.463ZM57.025,6.413c-1.786,0-2.985,1.4-2.985,3.487v.263c0,2.2,1.129,3.562,2.947,3.562a2.759,2.759,0,0,0,2.2-.881,4.008,4.008,0,0,0,.789-2.681v-.3a3.771,3.771,0,0,0-.828-2.554A2.743,2.743,0,0,0,57.025,6.413ZM29.086,16.463a6.494,6.494,0,0,1-4.612-1.58,6.045,6.045,0,0,1-1.626-4.533v-.337a6.232,6.232,0,0,1,1.77-4.65A6.312,6.312,0,0,1,29.086,3.75a6.32,6.32,0,0,1,4.5,1.612,6.26,6.26,0,0,1,1.742,4.65v.337C35.325,14.178,32.993,16.463,29.086,16.463Zm-.038-10.05a2.757,2.757,0,0,0-2.167.914,4.058,4.058,0,0,0-.818,2.686v.3c0,2.137,1.116,3.413,2.985,3.413a2.917,2.917,0,0,0,2.182-.9,3.645,3.645,0,0,0,.8-2.508v-.3a4.076,4.076,0,0,0-.8-2.644A2.739,2.739,0,0,0,29.048,6.413Zm-14.7,9.75V4.05h2.564l.42,2.813c.512-1.968,1.84-2.925,4.057-2.925h.8V7.162H20.858a3.381,3.381,0,0,0-2.636.769,3.877,3.877,0,0,0-.655,2.682v5.549H14.352Zm66.056-.036H76.62l4.708-6.263L77,4.05h3.712L83.2,7.688,85.729,4.05H89.4L85,9.825l4.629,6.3-3.635,0-2.831-4.013-2.756,4.013Zm-74.476,0H0V1.2H5.818A6.923,6.923,0,0,1,10.6,2.85,6.789,6.789,0,0,1,12.591,8.1V9.113a7.084,7.084,0,0,1-1.909,5.321A6.672,6.672,0,0,1,5.932,16.125ZM3.253,3.9v9.488H5.741c2.27,0,3.521-1.545,3.521-4.35V8.25a4.8,4.8,0,0,0-1.014-3.3A3.362,3.362,0,0,0,5.626,3.9Z" transform="translate(34.368 3.3)" fill="#dddddd"/>
	</g>
</svg>
