<svg xmlns="http://www.w3.org/2000/svg" width="24" height="17.143" viewBox="0 0 24 17.143">
  <g id="E-mail" transform="translate(0 -1.429)">
    <g id="Icon" transform="translate(0 1)">
      <path id="Envelope" d="M22.274,17.143H1.726a1.733,1.733,0,0,1-1.184-.465L9.031,9.4,12,12l2.969-2.6,8.484,7.277A1.719,1.719,0,0,1,22.274,17.143ZM24,15.747h0L15.715,8.707,24,1.5V15.747Zm-24,0V1.5l8.285,7.2L0,15.745Zm12-5.461h0L.545.468A1.719,1.719,0,0,1,1.726,0H22.274a1.73,1.73,0,0,1,1.184.464L12,10.285Z" transform="translate(0 0.429)" fill="#ff6539"/>
    </g>
  </g>
</svg>
