<svg xmlns="http://www.w3.org/2000/svg" width="26" height="24.875" viewBox="0 0 26 24.875">
  <g id="Group_79" data-name="Group 79" transform="translate(-1225.508 -930.723)">
    <path id="Path_277" data-name="Path 277" d="M1240.688,939.721a.458.458,0,1,0-.457-.458A.458.458,0,0,0,1240.688,939.721Z" transform="translate(5.85 3.211)" fill="#3232cc"/>
    <path id="Path_278" data-name="Path 278" d="M1229.881,940.7a.458.458,0,1,0-.458-.457A.457.457,0,0,0,1229.881,940.7Z" transform="translate(1.555 3.602)" fill="#3232cc"/>
    <path id="Path_279" data-name="Path 279" d="M1231.846,940.7a.458.458,0,1,0-.458-.457A.457.457,0,0,0,1231.846,940.7Z" transform="translate(2.336 3.602)" fill="#3232cc"/>
    <path id="Path_280" data-name="Path 280" d="M1230.864,941.685a.458.458,0,1,0-.458-.457A.456.456,0,0,0,1230.864,941.685Z" transform="translate(1.946 3.992)" fill="#3232cc"/>
    <circle id="Ellipse_99" data-name="Ellipse 99" cx="0.458" cy="0.458" r="0.458" transform="translate(1235.098 944.762)" fill="#3232cc"/>
    <path id="Path_281" data-name="Path 281" d="M1233.811,942.668a.458.458,0,1,0-.457-.458A.459.459,0,0,0,1233.811,942.668Z" transform="translate(3.118 4.382)" fill="#3232cc"/>
    <path id="Path_282" data-name="Path 282" d="M1235.776,942.668a.458.458,0,1,0-.458-.458A.457.457,0,0,0,1235.776,942.668Z" transform="translate(3.898 4.382)" fill="#3232cc"/>
    <path id="Path_283" data-name="Path 283" d="M1236.758,941.685a.458.458,0,1,0-.457-.457A.458.458,0,0,0,1236.758,941.685Z" transform="translate(4.289 3.992)" fill="#3232cc"/>
    <path id="Path_284" data-name="Path 284" d="M1234.794,943.652a.458.458,0,1,0-.458-.458A.457.457,0,0,0,1234.794,943.652Z" transform="translate(3.508 4.773)" fill="#3232cc"/>
    <path id="Path_285" data-name="Path 285" d="M1237.741,940.7a.458.458,0,1,0-.458-.457A.457.457,0,0,0,1237.741,940.7Z" transform="translate(4.678 3.602)" fill="#3232cc"/>
    <path id="Path_286" data-name="Path 286" d="M1239.706,940.7a.458.458,0,1,0-.457-.457A.457.457,0,0,0,1239.706,940.7Z" transform="translate(5.459 3.602)" fill="#3232cc"/>
    <path id="Path_287" data-name="Path 287" d="M1238.724,941.685a.458.458,0,1,0-.458-.457A.456.456,0,0,0,1238.724,941.685Z" transform="translate(5.069 3.992)" fill="#3232cc"/>
    <path id="Path_288" data-name="Path 288" d="M1247.087,945.662l4.418-2.523-4.421-2.508,4.421-2.525-13-7.382-13,7.382,4.42,2.525-4.416,2.508,4.418,2.526-4.418,2.509,12.893,7.364.1.06,12.678-7.242.32-.182Zm-17.412-3.352c-.023.056-.068.1-.068.165a.458.458,0,1,0,.915,0,.443.443,0,0,0-.386-.427l.833-.472a.662.662,0,0,0,.75.131l.05-.027.572.327-.022.024a.666.666,0,0,0,.527,1.111.665.665,0,0,0,.611-.5l4.206,2.4a.641.641,0,0,0-.027.173.665.665,0,0,0,1.329.05l4.273-2.44a.655.655,0,0,0,.556.306.668.668,0,0,0,.668-.668.659.659,0,0,0-.076-.3l.72-.412a.65.65,0,0,0,.65-.356l3.056,1.737-.421.24a.663.663,0,0,0-.749-.148.67.67,0,0,0-.4.616.7.7,0,0,0,.026.17l-4.2,2.4a.673.673,0,0,0-.64-.5h-.007a.669.669,0,0,0-.472,1.142l-.569.326a.662.662,0,0,0-.808.108.67.67,0,0,0-.191.46l-1.871,1.068-2.357-1.346a.669.669,0,0,0-.613-.383.43.43,0,0,0-.046.005l-.717-.411a.652.652,0,0,0,.074-.3.663.663,0,0,0-1.224-.358l-4.27-2.428a.668.668,0,0,0-.669-.619.677.677,0,0,0-.288.073l-.193-.11Zm1.6,4.125,7.128,4.07.1.06,7.233-4.131,3.07,1.741-10.3,5.887-10.3-5.887Zm7.228-14.179,10.3,5.851-10.3,5.888-10.3-5.887Z" transform="translate(0 0)" fill="#3232cc"/>
  </g>
</svg>
