<svg xmlns="http://www.w3.org/2000/svg" width="89.465" height="29.45" viewBox="0 0 89.465 29.45">
  <g id="Item_1" data-name="Item 1" transform="translate(-0.257)">
  	<path id="Shape" d="M7.383,14.719a7.4,7.4,0,0,1-5.217-2.091A7.3,7.3,0,0,1,0,7.359,7.3,7.3,0,0,1,2.166,2.08,7.4,7.4,0,0,1,7.383,0,7.4,7.4,0,0,1,12.6,2.08a7.3,7.3,0,0,1,2.166,5.28A7.3,7.3,0,0,1,12.6,12.628,7.394,7.394,0,0,1,7.383,14.719Zm0-11.819A4.021,4.021,0,0,0,4.471,4.137,4.585,4.585,0,0,0,3.232,7.359a4.584,4.584,0,0,0,1.239,3.213,4.022,4.022,0,0,0,5.823,0,4.584,4.584,0,0,0,1.239-3.212,4.585,4.585,0,0,0-1.239-3.223A4.021,4.021,0,0,0,7.383,2.9Z" transform="translate(23.778 8.139)" fill="#DDDDDD"/>
  	<path id="Shape-2" data-name="Shape" d="M7.383,14.719a7.4,7.4,0,0,1-5.217-2.091A7.3,7.3,0,0,1,0,7.359,7.3,7.3,0,0,1,2.166,2.081,7.4,7.4,0,0,1,7.383,0,7.4,7.4,0,0,1,12.6,2.08a7.3,7.3,0,0,1,2.166,5.28A7.3,7.3,0,0,1,12.6,12.628,7.394,7.394,0,0,1,7.383,14.719Zm0-11.819A4.021,4.021,0,0,0,4.471,4.137,4.585,4.585,0,0,0,3.232,7.359a4.584,4.584,0,0,0,1.239,3.213,4.022,4.022,0,0,0,5.823,0,4.584,4.584,0,0,0,1.239-3.212,4.585,4.585,0,0,0-1.239-3.223A4.021,4.021,0,0,0,7.383,2.9Z" transform="translate(39.704 8.139)" fill="#DDDDDD"/>
  	<path id="Shape-3" data-name="Shape" d="M7.114,21.311a6.843,6.843,0,0,1-4.3-1.437,7.257,7.257,0,0,1-2.228-2.9L3.4,15.8A4.058,4.058,0,0,0,7.11,18.415c2.5,0,3.928-1.572,3.928-4.314V13.043h-.113a5.016,5.016,0,0,1-3.875,1.672,6.985,6.985,0,0,1-4.9-2.118A7.367,7.367,0,0,1,0,7.385a7.452,7.452,0,0,1,2.146-5.25A6.959,6.959,0,0,1,7.051,0a5.1,5.1,0,0,1,3.875,1.646h.112V.448h3.069V13.657a7.83,7.83,0,0,1-2.076,5.865A6.89,6.89,0,0,1,7.114,21.311ZM7.34,2.9a4.259,4.259,0,0,0-4.1,4.486,4.23,4.23,0,0,0,4.1,4.433c2.24,0,3.929-1.906,3.929-4.433C11.268,4.828,9.579,2.9,7.34,2.9Z" transform="translate(55.624 8.139)" fill="#DDDDDD"/>
  	<path id="Shape-4" data-name="Shape" d="M3.152,0V21.567H0V0Z" transform="translate(71.639 0.839)" fill="#DDDDDD"/>
  	<path id="Shape-5" data-name="Shape" d="M7.3,14.719a7.245,7.245,0,0,1-5.219-2.132A7.384,7.384,0,0,1,0,7.359,7.535,7.535,0,0,1,2.049,2.038,6.771,6.771,0,0,1,6.941,0a6.142,6.142,0,0,1,4.352,1.725,8.124,8.124,0,0,1,1.946,2.957l.335.836L3.736,9.592A3.728,3.728,0,0,0,7.3,11.821a4.179,4.179,0,0,0,3.623-2.037l2.508,1.672A7.341,7.341,0,0,1,7.3,14.719ZM7.051,2.847A3.947,3.947,0,0,0,4.343,4.062,4.109,4.109,0,0,0,3.2,7.137L9.781,4.406A2.848,2.848,0,0,0,7.051,2.847Z" transform="translate(76.148 8.136)" fill="#DDDDDD"/>
  	<path id="Shape-6" data-name="Shape" d="M11.59,13.584V10.461H22.111a10.345,10.345,0,0,1,.156,1.885,10.311,10.311,0,0,1-2.7,7.3,10.449,10.449,0,0,1-7.97,3.205A11.587,11.587,0,0,1,0,11.427,11.587,11.587,0,0,1,11.593,0a10.888,10.888,0,0,1,7.83,3.149l-2.2,2.2a7.958,7.958,0,0,0-5.631-2.23,8.2,8.2,0,0,0-8.2,8.3,8.2,8.2,0,0,0,8.2,8.3,7.645,7.645,0,0,0,5.77-2.286,6.471,6.471,0,0,0,1.692-3.865Z" transform="translate(0.257)" fill="#DDDDDD"/>
  </g>
</svg>
