<svg xmlns="http://www.w3.org/2000/svg" width="83.002" height="83" viewBox="0 0 83.002 83">
  <g id="Group_49" data-name="Group 49" transform="translate(-216 -215.995)">
    <path id="Path_155" data-name="Path 155" d="M298.132,267.275a1.393,1.393,0,0,0-1.521.331l-5.909,6.211V236.929h.007l5.637-6.087a1.383,1.383,0,0,0-.077-1.955h0L294.24,227l2.819-3.043a1.382,1.382,0,0,0-.078-1.954l-6.087-5.638a1.382,1.382,0,0,0-1.954.076L279.1,227.059H231.217a6.925,6.925,0,0,0-6.917-6.917h-1.383A6.924,6.924,0,0,0,216,227.059v59.485a1.383,1.383,0,0,0,1.384,1.383h20.94l-2.905,3.488a1.384,1.384,0,0,0,.178,1.948l6.379,5.311a1.384,1.384,0,0,0,1.948-.178h0l7.08-8.507a4.105,4.105,0,0,0,.908-2.063h25.349l-8.315,8.731a1.384,1.384,0,0,0,1,2.336h27.667A1.384,1.384,0,0,0,299,297.611V268.56A1.383,1.383,0,0,0,298.132,267.275Zm-4.755-37.312-2.675,2.893v-2.035l1.66-1.8Zm-5.442-.246v.02l-11.7,12.644-4.063-3.759,14.094-15.231,4.063,3.759-2.378,2.567ZM273.579,243.69l-3.182.928.68-3.245Zm16.447-24.36,4.061,3.758-1.879,2.035-4.062-3.761Zm-67.108,3.578H224.3a4.151,4.151,0,0,1,4.15,4.151v52.6a6.835,6.835,0,0,0-4.15-1.419h-1.383a6.833,6.833,0,0,0-4.15,1.419v-52.6A4.15,4.15,0,0,1,222.917,222.908Zm0,58.1H224.3a4.151,4.151,0,0,1,4.15,4.15h-9.683A4.15,4.15,0,0,1,222.917,281.01Zm25.964,7.211L248,289.283l-4.253-3.54.884-1.063a1.384,1.384,0,0,1,1.948-.178h0l2.126,1.765a1.384,1.384,0,0,1,.179,1.948h0Zm-6.2,7.442-4.253-3.54,3.541-4.254,4.252,3.54Zm8.648-10.5a4.121,4.121,0,0,0-.861-1.015l-2.126-1.769a4.149,4.149,0,0,0-5.844.533l-1.877,2.25h-9.407V229.825h45.326l-7.341,7.934a1.342,1.342,0,0,0-.247.4c-.017.039-.029.077-.043.119s-.034.083-.045.127l-1.652,7.9a1.384,1.384,0,0,0,1.742,1.61l7.747-2.258c.036-.011.066-.032.1-.045a1.07,1.07,0,0,0,.108-.049,1.348,1.348,0,0,0,.415-.292l10.6-11.462v42.911L279.9,285.16Zm44.9,11.067H273.178l23.057-24.209Z" transform="translate(0 0)" fill="#fff"/>
    <path id="Path_156" data-name="Path 156" d="M278.772,290.255a1.383,1.383,0,0,0,1.278.853h9.683a1.383,1.383,0,0,0,1.384-1.383v-9.683a1.384,1.384,0,0,0-2.361-.978l-9.684,9.683A1.386,1.386,0,0,0,278.772,290.255Zm9.578-6.875v4.961h-4.96Z" transform="translate(2.352 2.352)" fill="#fff"/>
    <path id="Path_157" data-name="Path 157" d="M276.117,267.56h-9.683V252.342a1.393,1.393,0,0,0-.407-.979l-8.3-8.3a1.382,1.382,0,0,0-1.956,0l-8.3,8.3a1.4,1.4,0,0,0-.4.979V267.56h-9.683a1.383,1.383,0,1,0,0,2.766h38.734a1.383,1.383,0,1,0,0-2.766ZM256.751,246l4.96,4.96H251.79Zm-6.917,7.728h13.834V267.56H249.833Z" transform="translate(0.751 1.001)" fill="#fff"/>
    <path id="Path_158" data-name="Path 158" d="M254.666,237.325h2.768v2.767h-2.768Z" transform="translate(1.451 0.8)" fill="#fff"/>
    <path id="Path_159" data-name="Path 159" d="M254.666,271.992h2.768v2.767h-2.768Z" transform="translate(1.451 2.101)" fill="#fff"/>
  </g>
</svg>
