<svg id="Group_50" data-name="Group 50" xmlns="http://www.w3.org/2000/svg" width="86.96" height="76" viewBox="0 0 86.96 76">
  <path id="Path_208" data-name="Path 208" d="M-171.455,222.154h2.923v2.923h-2.923Z" transform="translate(180.224 -216.308)" fill="#fff"/>
  <path id="Path_209" data-name="Path 209" d="M-165.3,222.154h2.923v2.923H-165.3Z" transform="translate(179.917 -216.308)" fill="#fff"/>
  <path id="Path_210" data-name="Path 210" d="M-159.147,222.154h2.923v2.923h-2.923Z" transform="translate(179.609 -216.308)" fill="#fff"/>
  <path id="Path_211" data-name="Path 211" d="M-152.455,237.538h-17.538A1.462,1.462,0,0,0-171.455,239v14.616a1.462,1.462,0,0,0,1.462,1.461h17.538a1.462,1.462,0,0,0,1.462-1.461V239A1.462,1.462,0,0,0-152.455,237.538Zm-1.461,14.616h-14.616V240.461h14.616Z" transform="translate(180.224 -217.077)" fill="#fff"/>
  <path id="Path_212" data-name="Path 212" d="M-143.763,237.538h5.846v2.923h-5.846Z" transform="translate(178.84 -217.077)" fill="#fff"/>
  <path id="Path_213" data-name="Path 213" d="M-134.532,237.538h23.385v2.923h-23.385Z" transform="translate(178.378 -217.077)" fill="#fff"/>
  <path id="Path_214" data-name="Path 214" d="M-143.763,243.692h32.155v2.923h-32.155Z" transform="translate(178.84 -217.385)" fill="#fff"/>
  <path id="Path_215" data-name="Path 215" d="M-143.763,249.846h14.616v2.923h-14.616Z" transform="translate(178.84 -217.692)" fill="#fff"/>
  <path id="Path_216" data-name="Path 216" d="M-125.3,249.846h8.769v2.923H-125.3Z" transform="translate(177.917 -217.692)" fill="#fff"/>
  <path id="Path_217" data-name="Path 217" d="M-171.455,262.154h20.462v2.923h-20.462Z" transform="translate(180.224 -218.308)" fill="#fff"/>
  <path id="Path_218" data-name="Path 218" d="M-171.455,268.308h20.462v2.923h-20.462Z" transform="translate(180.224 -218.616)" fill="#fff"/>
  <path id="Path_219" data-name="Path 219" d="M-171.455,274.462h20.462v2.922h-20.462Z" transform="translate(180.224 -218.923)" fill="#fff"/>
  <path id="Path_220" data-name="Path 220" d="M-171.455,280.615h20.462v2.923h-20.462Z" transform="translate(180.224 -219.231)" fill="#fff"/>
  <path id="Path_221" data-name="Path 221" d="M-97.378,235.133a7.111,7.111,0,0,0-7.308.032V220.384A4.384,4.384,0,0,0-109.07,216H-176.3a4.385,4.385,0,0,0-4.385,4.384v67.232A4.385,4.385,0,0,0-176.3,292h67.231a4.384,4.384,0,0,0,4.384-4.384h0v-25.21l9.983-17.29A7.315,7.315,0,0,0-97.378,235.133Zm-29.458,42.251h-15.851V262.769h20.913l-3.857,6.682a1.451,1.451,0,0,0-.193.824l.31,4.823Zm1.884,2.584,1.461-2.531,2.532,1.461-1.461,2.532a1.462,1.462,0,0,1-2,.522A1.462,1.462,0,0,1-124.951,279.968Zm6.044-3.261-3.71-2.141-.225-3.508,7.082,4.093Zm4.865-3.946-2.532-1.462,10.962-18.985-2.532-1.462-10.961,18.986-2.532-1.462,12.423-21.517,7.6,4.384Zm6.284-28.434.731-1.264,7.6,4.384-.731,1.265Zm-68.543-25.4h67.231a1.461,1.461,0,0,1,1.461,1.461v7.355h-70.154v-7.355A1.462,1.462,0,0,1-176.3,218.923Zm68.692,68.693a1.461,1.461,0,0,1-1.461,1.461H-176.3a1.462,1.462,0,0,1-1.462-1.461V230.662h70.154v7.576l-12.475,21.608h-24.063a1.462,1.462,0,0,0-1.462,1.461v17.539a1.461,1.461,0,0,0,1.462,1.461h16.106a4.383,4.383,0,0,0,3.995,4.742,4.382,4.382,0,0,0,4.16-2.158l1.97-3.414,4.326-2.139a1.462,1.462,0,0,0,.618-.584l5.362-9.285Zm10.377-43.962-.731,1.266-7.6-4.385.731-1.265a4.387,4.387,0,0,1,5.993-1.607,4.386,4.386,0,0,1,1.607,5.992Z" transform="translate(180.686 -216)" fill="#fff"/>
</svg>
