<svg xmlns="http://www.w3.org/2000/svg" width="80" height="80" viewBox="0 0 80 80">
  <g id="Group_47" data-name="Group 47" transform="translate(429 -216)">
    <path id="Path_203" data-name="Path 203" d="M-418.677,288.258h2.58v2.581h-2.58Z" fill="#fff"/>
    <path id="Path_204" data-name="Path 204" d="M-413.516,288.258h2.581v2.581h-2.581Z" fill="#fff"/>
    <path id="Path_205" data-name="Path 205" d="M-423.839,288.258h2.581v2.581h-2.581Z" fill="#fff"/>
    <path id="Path_206" data-name="Path 206" d="M-423.839,283.1h12.9v2.58h-12.9Z" fill="#fff"/>
    <path id="Path_207" data-name="Path 207" d="M-350.867,278.785l-12.022-6.011h-6.9a9.018,9.018,0,0,0,2.621-5.161h.1a3.875,3.875,0,0,0,3.871-3.871,3.863,3.863,0,0,0-2.6-3.639l6.548-7.857a21.972,21.972,0,0,0,5.085-14.043v-.268A21.96,21.96,0,0,0-376.1,216,21.947,21.947,0,0,0-398,237.373l-6.258,17.175h-2.046v-7.742h-2.581v7.742h-2.581V244.226h-2.58v10.322h-2.581v-5.161h-2.581v5.161h-2.58V244.226h-2.581v10.322h-2.581v2.581h23.76s5.574-14.8,5.588-14.73a21.908,21.908,0,0,0,4.658,9.846l6.547,7.857a3.867,3.867,0,0,0-2.6,3.64,3.876,3.876,0,0,0,3.871,3.871h.1a9,9,0,0,0,2.621,5.161h-7.885v-6.451a3.875,3.875,0,0,0-3.871-3.871h-30.968A3.875,3.875,0,0,0-429,266.323v25.806A3.876,3.876,0,0,0-425.129,296h30.968a3.876,3.876,0,0,0,3.871-3.871v-1.29h27.4l12.021-6.011A3.358,3.358,0,0,0-349,281.806,3.358,3.358,0,0,0-350.867,278.785ZM-395.452,238.2v-.268A19.377,19.377,0,0,1-376.1,218.581a19.377,19.377,0,0,1,19.355,19.354v.268a19.4,19.4,0,0,1-4.486,12.391l-7.731,9.277h-1.525l9.253-30.4-9.471,3.157-5.395-4.046-5.4,4.046-9.471-3.157,9.255,30.4h-1.526l-7.731-9.277a19.4,19.4,0,0,1-4.487-12.391Zm18.065-.268v21.936h-1.625l-8.025-26.373,6.012,2,4.928-3.7,4.928,3.7,6.013-2-8.026,26.373h-1.624V237.935Zm-9.032,25.807a1.292,1.292,0,0,1,1.29-1.29h18.064a1.293,1.293,0,0,1,1.291,1.29,1.293,1.293,0,0,1-1.291,1.29h-18.064A1.292,1.292,0,0,1-386.419,263.742Zm4,3.871h12.643a6.463,6.463,0,0,1-6.322,5.161,6.462,6.462,0,0,1-6.321-5.161Zm17.934,7.742v5.161H-390.29v-5.161Zm-43.871-7.742v2.581h-2.58v-2.581h-2.581v2.581H-416.1v-5.162h12.9v5.162h-2.58v-2.581Zm15.484,24.516a1.292,1.292,0,0,1-1.29,1.29h-30.968a1.292,1.292,0,0,1-1.29-1.29V266.323a1.293,1.293,0,0,1,1.29-1.291h6.452v7.742h18.064v-7.742h6.452a1.293,1.293,0,0,1,1.29,1.291Zm2.581-9.032h25.806v5.161H-390.29Zm38.268-.577-9.881,4.941V276.152l9.882,4.941a.8.8,0,0,1,.44.713A.794.794,0,0,1-352.022,282.52Z" fill="#fff"/>
  </g>
</svg>
