<svg xmlns="http://www.w3.org/2000/svg" width="82.942" height="82.942" viewBox="0 0 82.942 82.942">
  <g id="Group_48" data-name="Group 48" transform="translate(82.942 82.942) rotate(180)">
    <path id="Path_166" data-name="Path 166" d="M285.6,264.909l-4.025-.639-2.071-5,2.393-3.3a1.62,1.62,0,0,0-.168-2.1l-7.187-7.185a1.622,1.622,0,0,0-2.1-.164l-3.295,2.393-5-2.069-.641-4.021a1.62,1.62,0,0,0-1.6-1.366h-5.07a1.62,1.62,0,0,0,0,3.241h3.689l.564,3.552a1.623,1.623,0,0,0,.981,1.242l6.677,2.762a1.619,1.619,0,0,0,1.572-.187l2.909-2.113,5.232,5.227-2.111,2.913a1.618,1.618,0,0,0-.187,1.572l2.768,6.673a1.617,1.617,0,0,0,1.242.979l3.554.562,0,7.4-3.55.564a1.617,1.617,0,0,0-1.242.981l-2.764,6.677a1.618,1.618,0,0,0,.187,1.572l2.113,2.909-5.227,5.232-2.913-2.113a1.623,1.623,0,0,0-1.572-.185l-6.671,2.766a1.63,1.63,0,0,0-.981,1.244l-.562,3.554h-3.71a1.62,1.62,0,0,0,0,3.241h5.093a1.624,1.624,0,0,0,1.6-1.366l.637-4.027,5-2.071,3.3,2.391a1.62,1.62,0,0,0,2.1-.166l7.183-7.189a1.617,1.617,0,0,0,.164-2.1l-2.393-3.295,2.069-5,4.023-.641a1.622,1.622,0,0,0,1.364-1.6l0-10.162A1.62,1.62,0,0,0,285.6,264.909Z" transform="translate(-215.368 -230.13)" fill="#fff"/>
    <path id="Path_167" data-name="Path 167" d="M255.219,262.732a1.619,1.619,0,0,0,1.619,1.619h.075a1.62,1.62,0,1,0-1.694-1.619Z" transform="translate(-215.368 -209.041)" fill="#fff"/>
    <path id="Path_168" data-name="Path 168" d="M261.776,272.548a1.62,1.62,0,0,0,1.512,2.866,13.841,13.841,0,0,0-6.449-26.087,1.619,1.619,0,1,0,0,3.239,10.6,10.6,0,0,1,4.937,19.983Z" transform="translate(-215.368 -221.694)" fill="#fff"/>
    <path id="Path_169" data-name="Path 169" d="M245.4,270.688h-7.776A1.619,1.619,0,0,0,236,272.307v7.776a1.62,1.62,0,0,0,1.619,1.619H245.4a1.619,1.619,0,0,0,1.619-1.619v-7.776A1.618,1.618,0,0,0,245.4,270.688Zm-1.619,7.776h-4.537v-4.537h4.537Z" transform="translate(-236 -198.761)" fill="#fff"/>
    <path id="Path_170" data-name="Path 170" d="M280.084,270.688h-7.776a1.619,1.619,0,0,0-1.621,1.619v7.776a1.621,1.621,0,0,0,1.621,1.619h7.776a1.62,1.62,0,0,0,1.619-1.619v-7.776A1.619,1.619,0,0,0,280.084,270.688Zm-1.621,7.776h-4.535v-4.537h4.535Z" transform="translate(-198.762 -198.761)" fill="#fff"/>
    <path id="Path_171" data-name="Path 171" d="M245.4,236h-7.776A1.62,1.62,0,0,0,236,237.619V245.4a1.621,1.621,0,0,0,1.619,1.622H245.4a1.619,1.619,0,0,0,1.619-1.622v-7.776A1.619,1.619,0,0,0,245.4,236Zm-1.619,7.776h-4.537v-4.535h4.537Z" transform="translate(-236 -236)" fill="#fff"/>
    <path id="Path_172" data-name="Path 172" d="M280.084,236h-7.776a1.621,1.621,0,0,0-1.621,1.619V245.4a1.621,1.621,0,0,0,1.621,1.622h7.776A1.621,1.621,0,0,0,281.7,245.4v-7.776A1.62,1.62,0,0,0,280.084,236Zm-1.621,7.776h-4.535v-4.535h4.535Z" transform="translate(-198.762 -236)" fill="#fff"/>
    <path id="Path_173" data-name="Path 173" d="M272.562,269.518a1.62,1.62,0,1,0,3.241,0V267.9a1.62,1.62,0,0,0-3.241,0Z" transform="translate(-196.749 -203.494)" fill="#fff"/>
    <path id="Path_174" data-name="Path 174" d="M272.562,265.612a1.62,1.62,0,0,0,3.241,0v-1.619a1.62,1.62,0,0,0-3.241,0Z" transform="translate(-196.749 -207.688)" fill="#fff"/>
    <path id="Path_175" data-name="Path 175" d="M274.183,246.992a1.62,1.62,0,0,0,1.619-1.619v-.251a1.62,1.62,0,0,0-3.241,0v.251A1.621,1.621,0,0,0,274.183,246.992Z" transform="translate(-196.749 -227.946)" fill="#fff"/>
    <path id="Path_176" data-name="Path 176" d="M272.562,261.707a1.62,1.62,0,0,0,3.241,0v-1.619a1.62,1.62,0,1,0-3.241,0Z" transform="translate(-196.749 -211.882)" fill="#fff"/>
    <path id="Path_177" data-name="Path 177" d="M272.562,249.987a1.62,1.62,0,0,0,3.241,0v-1.619a1.62,1.62,0,0,0-3.241,0Z" transform="translate(-196.749 -224.462)" fill="#fff"/>
    <path id="Path_178" data-name="Path 178" d="M272.562,257.8a1.62,1.62,0,0,0,3.241,0v-1.621a1.62,1.62,0,0,0-3.241,0Z" transform="translate(-196.749 -216.075)" fill="#fff"/>
    <path id="Path_179" data-name="Path 179" d="M272.562,253.893a1.62,1.62,0,1,0,3.241,0v-1.619a1.62,1.62,0,0,0-3.241,0Z" transform="translate(-196.749 -220.268)" fill="#fff"/>
    <path id="Path_180" data-name="Path 180" d="M237.875,257.8a1.619,1.619,0,0,0,3.239,0v-1.621a1.619,1.619,0,0,0-3.239,0Z" transform="translate(-233.987 -216.075)" fill="#fff"/>
    <path id="Path_181" data-name="Path 181" d="M237.875,261.707a1.619,1.619,0,0,0,3.239,0v-1.619a1.619,1.619,0,1,0-3.239,0Z" transform="translate(-233.987 -211.882)" fill="#fff"/>
    <path id="Path_182" data-name="Path 182" d="M239.494,246.992a1.619,1.619,0,0,0,1.619-1.619v-.251a1.619,1.619,0,1,0-3.239,0v.251A1.62,1.62,0,0,0,239.494,246.992Z" transform="translate(-233.987 -227.946)" fill="#fff"/>
    <path id="Path_183" data-name="Path 183" d="M237.875,253.893a1.619,1.619,0,1,0,3.239,0v-1.619a1.619,1.619,0,1,0-3.239,0Z" transform="translate(-233.987 -220.268)" fill="#fff"/>
    <path id="Path_184" data-name="Path 184" d="M237.875,265.612a1.619,1.619,0,1,0,3.239,0v-1.619a1.619,1.619,0,1,0-3.239,0Z" transform="translate(-233.987 -207.688)" fill="#fff"/>
    <path id="Path_185" data-name="Path 185" d="M237.875,249.987a1.619,1.619,0,1,0,3.239,0v-1.619a1.619,1.619,0,1,0-3.239,0Z" transform="translate(-233.987 -224.462)" fill="#fff"/>
    <path id="Path_186" data-name="Path 186" d="M237.875,269.518a1.619,1.619,0,1,0,3.239,0V267.9a1.619,1.619,0,1,0-3.239,0Z" transform="translate(-233.987 -203.494)" fill="#fff"/>
    <path id="Path_187" data-name="Path 187" d="M262.3,272.625h-1.619a1.619,1.619,0,0,0,0,3.239H262.3a1.619,1.619,0,0,0,0-3.239Z" transform="translate(-211.239 -196.682)" fill="#fff"/>
    <path id="Path_188" data-name="Path 188" d="M254.493,272.625h-1.622a1.619,1.619,0,0,0,0,3.239h1.622a1.619,1.619,0,0,0,0-3.239Z" transform="translate(-219.626 -196.682)" fill="#fff"/>
    <path id="Path_189" data-name="Path 189" d="M258.4,272.625H256.78a1.619,1.619,0,1,0,0,3.239H258.4a1.619,1.619,0,0,0,0-3.239Z" transform="translate(-215.433 -196.682)" fill="#fff"/>
    <path id="Path_190" data-name="Path 190" d="M250.585,272.625h-1.619a1.619,1.619,0,0,0,0,3.239h1.619a1.619,1.619,0,1,0,0-3.239Z" transform="translate(-223.82 -196.682)" fill="#fff"/>
    <path id="Path_191" data-name="Path 191" d="M266.21,272.625H264.59a1.619,1.619,0,0,0,0,3.239h1.619a1.619,1.619,0,1,0,0-3.239Z" transform="translate(-207.046 -196.682)" fill="#fff"/>
    <path id="Path_192" data-name="Path 192" d="M246.679,272.625h-1.619a1.619,1.619,0,0,0,0,3.239h1.619a1.619,1.619,0,0,0,0-3.239Z" transform="translate(-228.013 -196.682)" fill="#fff"/>
    <path id="Path_193" data-name="Path 193" d="M268.747,272.625H268.5a1.619,1.619,0,0,0,0,3.239h.251a1.619,1.619,0,1,0,0-3.239Z" transform="translate(-202.852 -196.682)" fill="#fff"/>
    <path id="Path_194" data-name="Path 194" d="M260.684,241.178H262.3a1.62,1.62,0,0,0,0-3.241h-1.619a1.62,1.62,0,0,0,0,3.241Z" transform="translate(-211.239 -233.921)" fill="#fff"/>
    <path id="Path_195" data-name="Path 195" d="M256.78,241.178H258.4a1.62,1.62,0,0,0,0-3.241H256.78a1.62,1.62,0,1,0,0,3.241Z" transform="translate(-215.433 -233.921)" fill="#fff"/>
    <path id="Path_196" data-name="Path 196" d="M268.5,241.178h.251a1.62,1.62,0,0,0,0-3.241H268.5a1.62,1.62,0,0,0,0,3.241Z" transform="translate(-202.852 -233.921)" fill="#fff"/>
    <path id="Path_197" data-name="Path 197" d="M264.59,241.178h1.619a1.62,1.62,0,1,0,0-3.241H264.59a1.62,1.62,0,0,0,0,3.241Z" transform="translate(-207.046 -233.921)" fill="#fff"/>
    <path id="Path_198" data-name="Path 198" d="M252.871,241.178h1.622a1.62,1.62,0,0,0,0-3.241h-1.622a1.62,1.62,0,0,0,0,3.241Z" transform="translate(-219.626 -233.921)" fill="#fff"/>
    <path id="Path_199" data-name="Path 199" d="M248.965,241.178h1.619a1.62,1.62,0,1,0,0-3.241h-1.619a1.62,1.62,0,0,0,0,3.241Z" transform="translate(-223.82 -233.921)" fill="#fff"/>
    <path id="Path_200" data-name="Path 200" d="M246.679,237.937h-1.619a1.62,1.62,0,0,0,0,3.241h1.619a1.62,1.62,0,0,0,0-3.241Z" transform="translate(-228.013 -233.921)" fill="#fff"/>
    <path id="Path_201" data-name="Path 201" d="M248.723,256.036a1.621,1.621,0,1,0-1.145-.475A1.63,1.63,0,0,0,248.723,256.036Z" transform="translate(-224.079 -217.968)" fill="#fff"/>
    <path id="Path_202" data-name="Path 202" d="M257.239,241.091h-6.664a3.475,3.475,0,0,0-3.471,3.471v16.806a1.619,1.619,0,1,0,3.239,0v-7.04h7.129v32.718h-7.129V273.3a1.619,1.619,0,1,0-3.239,0v15.365a1.617,1.617,0,0,0,.135.649l5.184,11.85a1.621,1.621,0,0,0,2.969,0l5.184-11.85a1.617,1.617,0,0,0,.135-.649v-44.1A3.475,3.475,0,0,0,257.239,241.091Zm-3.332,55.382-2.708-6.187h5.414Zm3.564-45.384h-7.129v-6.527a.231.231,0,0,1,.232-.23h6.664a.231.231,0,0,1,.232.23Z" transform="translate(-224.079 -230.535)" fill="#fff"/>
  </g>
</svg>
