<svg xmlns="http://www.w3.org/2000/svg" xmlns:xlink="http://www.w3.org/1999/xlink" width="36" height="36" viewBox="0 0 36 36">
  <g id="Instagram" transform="translate(0)" clip-path="url(#clip-path)">
    <path id="Instagram-2" data-name="Instagram" d="M10.832,15.429H4.6a4.6,4.6,0,0,1-4.6-4.6V4.6A4.6,4.6,0,0,1,4.6,0h6.236a4.6,4.6,0,0,1,4.6,4.6v6.236A4.6,4.6,0,0,1,10.832,15.429ZM4.6,1.553A3.047,3.047,0,0,0,1.553,4.6v6.236A3.047,3.047,0,0,0,4.6,13.876h6.236a3.047,3.047,0,0,0,3.044-3.044V4.6a3.047,3.047,0,0,0-3.044-3.044ZM7.714,11.7A3.99,3.99,0,1,1,11.7,7.714,3.995,3.995,0,0,1,7.714,11.7Zm0-6.429a2.439,2.439,0,1,0,2.439,2.438A2.441,2.441,0,0,0,7.714,5.276Zm4-.566a.956.956,0,1,1,.956-.956A.957.957,0,0,1,11.713,4.71Z" transform="translate(10.286 10.286)" fill="#fff"/>
  </g>
</svg>
