<svg xmlns="http://www.w3.org/2000/svg" width="42.822" height="34.474" viewBox="0 0 42.822 34.474">
  <g id="Title" transform="translate(-0.497 13.438)">
    <g id="Group_117" data-name="Group 117" transform="translate(-8.503 -13.438)">
      <path id="Path_299" data-name="Path 299" d="M0,34.474V19.134c.027-.388.052-.776.08-1.164a22.971,22.971,0,0,1,1.362-6.589A15.372,15.372,0,0,1,5.812,5.206a30.254,30.254,0,0,1,6.6-4.269c.6-.295,1.2-.565,1.806-.848a1.7,1.7,0,0,0,.15-.09h.081c.032.079.058.162.1.237Q16.422,3.784,18.3,7.33c.031.058.058.118.092.188-.463.23-.915.449-1.361.679A22.051,22.051,0,0,0,12.88,10.86a9,9,0,0,0-3.237,6.133q-.017.16-.032.321a.709.709,0,0,0,.006.086H18.4v.283q0,8.254,0,16.509c0,.094.005.188.008.282Z" transform="translate(9)" fill="#e5e5e5"/>
      <path id="Path_300" data-name="Path 300" d="M12.885,10.863a8.967,8.967,0,0,0-3.2,5.891c-.027.206-.047.413-.072.634.063.006.114.015.166.015h8.552c.027,0,.054,0,.08,0V34.474H0c0-.087.008-.174.008-.262,0-4.742-.008-9.484.007-14.225a26.659,26.659,0,0,1,.891-6.959A15.851,15.851,0,0,1,6.5,4.635,33.053,33.053,0,0,1,12.91.7c.43-.206.866-.4,1.3-.6a1.45,1.45,0,0,0,.163-.1h.081c.027.061.05.123.081.182Q16.413,3.746,18.3,7.309a1.492,1.492,0,0,0,.111.159v.081c-.364.168-.733.325-1.09.506A22.626,22.626,0,0,0,12.885,10.863Z" transform="translate(33.415)" fill="#e5e5e5"/>
    </g>
  </g>
</svg>
