<svg xmlns="http://www.w3.org/2000/svg" width="38" height="38" viewBox="0 0 38 38">
	<g id="Item_10" data-name="Item 10">
		<path id="Shape" d="M34.555,0H3.445A3.445,3.445,0,0,0,0,3.445v31.11A3.445,3.445,0,0,0,3.445,38h31.11A3.445,3.445,0,0,0,38,34.555V3.445A3.445,3.445,0,0,0,34.555,0" fill="#dddddd"/>
		<path id="Shape-2" data-name="Shape" d="M4.136,22.093a3.371,3.371,0,0,1-2.56-.929,3.444,3.444,0,0,1-.83-2.453,8.029,8.029,0,0,1,.2-1.734L2.678,9.8H0L.814,6.749H7.255L4.712,17a6.686,6.686,0,0,0-.238,1.577c0,.644.312.846.815.961a1,1,0,0,0,.195.015,4.449,4.449,0,0,0,3.828-2.957L10.983,9.8H8.27l.814-3.051h5.8l-.745,3.463a8.347,8.347,0,0,1,2.157-2.605,4.772,4.772,0,0,1,2.894-1.158,3.707,3.707,0,0,1,2.75,1.143,4.817,4.817,0,0,1,1.149,3.366,8.87,8.87,0,0,1-.373,2.512l-1.085,3.961a4.652,4.652,0,0,0-.169,1.068c0,.685.262,1.032.779,1.032.437,0,1.109-.257,1.9-2.48l1.491.585c-.829,2.949-2.335,4.443-4.475,4.443a3.125,3.125,0,0,1-3.458-3.341,6.2,6.2,0,0,1,.237-1.723l1.12-4.065a4.191,4.191,0,0,0,.169-1.24,1.919,1.919,0,0,0-2.034-2.1c-1.568,0-2.64,1.144-3.187,3.4l-2.17,8.843h-3.8l.681-2.779C7.531,21.05,5.948,22.093,4.136,22.093ZM5.729,4.616a2.3,2.3,0,0,1-2.3-2.309,2.305,2.305,0,1,1,4.611,0A2.3,2.3,0,0,1,5.729,4.616Z" transform="translate(7.07 7.07)" fill="#fff" class="whitecolor"/>
	</g>
</svg>
