<svg xmlns="http://www.w3.org/2000/svg" width="70" height="25" viewBox="0 0 70 25">
	<g id="Item_9" data-name="Item 9">
		<path id="Shape" d="M7.722,24.99A8.542,8.542,0,0,1,2.6,23.273,10.251,10.251,0,0,1,1.53,22.2,6.673,6.673,0,0,1,.376,20.123c-.755-2.266-.366-5.24,1.111-8.5,1.265-2.794,3.218-5.565,6.624-9.4.5-.565,2-2.216,2.006-2.216s-.078.141-.18.314A20.14,20.14,0,0,0,7.88,5.067a8.545,8.545,0,0,0,.234,6.139,5.99,5.99,0,0,0,2.618,2.615c1.9.934,4.69,1.012,8.092.226.234-.054,11.844-3.143,25.8-6.863S70,.422,70,.425,37.579,14.332,20.746,21.545c-2.666,1.142-3.379,1.43-4.632,1.871A23.442,23.442,0,0,1,7.722,24.99Z" transform="translate(0)" fill="#dddddd"/>
	</g>
</svg>
