<svg xmlns="http://www.w3.org/2000/svg" width="66.116" height="28.74" viewBox="0 0 66.116 28.74">
  <g id="Item_4" data-name="Item 4" transform="translate(-1.44 -3.333)">
    <g id="g52200" transform="translate(0.145 33.935)">
      <g id="g52202_Clipped" data-name="g52202 Clipped" transform="translate(0)">
        <g id="g52202" transform="translate(0.203 -0.147)">
          <g id="g52208" transform="translate(0.988 -2.102)">
            <path id="path52210" d="M-21.377,28.028H-8.708a1.811,1.811,0,0,1-.679-2.279L-2,2.084A3.84,3.84,0,0,1,0,0H-10.265a1.492,1.492,0,0,1,.9.687,1.624,1.624,0,0,1,.178,1.321l-2.681,8.562-.01,0a19.272,19.272,0,0,0-2.206-.116,19.941,19.941,0,0,0-7.3,1.3,11.363,11.363,0,0,0-6.571,6.4c-1.182,2.92-1.187,5.283-.015,7.022C-26.557,27.278-23.637,28.028-21.377,28.028Zm7.63-15.415a5.1,5.1,0,0,1,1.2.128l-4.107,13.1h-1.32A3.4,3.4,0,0,1-20.848,24.7c-.837-1.171-.763-3.217.218-6.082C-18.86,13.393-15.558,12.613-13.747,12.613Z" transform="translate(0.104 -0.002) rotate(180)" fill="#dddddd"/>
          </g>
          <g id="g52212" transform="translate(20.851 -1.248)">
            <path id="path52214" d="M-14.383,22.056a6.36,6.36,0,0,0,1.089-.1,6.645,6.645,0,0,0,3.126-1.541c2.154-1.982,2.387-5.319,2.387-6.662,0-.235-.013-.455-.023-.615,0-.063-.007-.117-.009-.161.1-.031.339-.133.341-.134.149-.055.321-.114.519-.183,1.815-.626,5.192-1.792,6.5-4.808A6.518,6.518,0,0,0,0,5.434,5.374,5.374,0,0,0-.772,2.553C-1.892.835-3.654,0-6.16,0h-.167c-3.1.04-6.186,2.242-6.528,2.493a13.729,13.729,0,0,0-2.6-2.107h-6.928a19.532,19.532,0,0,1,6.794,4.3,8.3,8.3,0,0,0-2.6,5.532H-14.6a1.443,1.443,0,0,1-.713-1.228,4.541,4.541,0,0,1,.924-2.62,14.052,14.052,0,0,1,2.577,5.951c-.293.146-.611.294-.947.45a16.262,16.262,0,0,0-4,2.37,4.764,4.764,0,0,0-1.86,3.346V18.6a3.04,3.04,0,0,0,.939,2.224A4.58,4.58,0,0,0-14.383,22.056Zm2.89-7.792a7.822,7.822,0,0,1-.967,4.9,2.606,2.606,0,0,1-1.967,1.359,1.272,1.272,0,0,1-.42-.071c-.655-.225-.668-.842-.606-1.354.345-2.287,3.3-4.565,3.96-4.832ZM-7.521,2.806a3.8,3.8,0,0,1,2.2.65A2.986,2.986,0,0,1-4.181,6.019,4.282,4.282,0,0,1-5.659,9.067a9.205,9.205,0,0,1-2.514,1.7A21.411,21.411,0,0,0-11.41,4.026,9.7,9.7,0,0,1-7.9,2.822C-7.777,2.812-7.65,2.806-7.521,2.806Z" transform="translate(0.932 -0.47) rotate(180)" fill="#dddddd"/>
          </g>
          <g id="g52216" transform="translate(40.282 -0.957)">
            <path id="path52218" d="M-17.053,26.215c-4.114.983-7.5-2.244-7.821-2.443l-1.152,3.719c1.615.491,13.388,4.492,21.712-5.031C.8,16.6,2.084,4.611-4.427,1.4c-6.952-3.448-14.639.524-15.179.793L-22.8,12.3a3.562,3.562,0,0,1-2.476,2.543h11.022a1.927,1.927,0,0,1-1.352-2.384l3.164-10.127c.426-.072,9.295-2.288,4.331,13.256-1.054,3.323-4.07,9.436-8.941,10.628" transform="translate(0.899 -0.758) rotate(180)" fill="#dddddd"/>
          </g>
        </g>
      </g>
    </g>
  </g>
</svg>
