<svg xmlns="http://www.w3.org/2000/svg" xmlns:xlink="http://www.w3.org/1999/xlink" width="101.97" height="28.914" viewBox="0 0 101.97 28.914">
  <defs>
    <clipPath id="clip-path">
      <path id="path-1" d="M0,28.057H21.679V0H0V28.057Z" transform="translate(0.085 0.009)" fill="none" class="whitecolor"/>
    </clipPath>
  </defs>
  <g id="Item_6" data-name="Item 6" transform="translate(0 -0.072)">
    <g id="Group" transform="translate(3.253 0.921)">
      <g id="Fill-1_Clipped" data-name="Fill-1 Clipped">
        <path id="path-1-3" data-name="path-1" d="M0,28.057H21.679V0H0V28.057Z" transform="translate(0.085 0.009)" fill="none" class="whitecolor"/>
        <g id="Fill-1_Clipped-2" data-name="Fill-1 Clipped" clip-path="url(#clip-path)">
          <path id="Fill-1" d="M4.926,1.729A2.529,2.529,0,0,0,1.745.123,2.5,2.5,0,0,0,.124,3.274L6.651,23.167a2.53,2.53,0,0,0,3.071,1.55,2.476,2.476,0,0,0,1.729-3.095L4.926,1.729" transform="translate(10.198 0.009)" fill="#dddddd"/>
        </g>
      </g>
      <g id="Fill-3_Clipped" data-name="Fill-3 Clipped">
        <path id="path-1-4" data-name="path-1" d="M0,28.057H21.679V0H0V28.057Z" transform="translate(0.085 0.009)" fill="none" class="whitecolor"/>
        <g id="Fill-3_Clipped-2" data-name="Fill-3 Clipped" clip-path="url(#clip-path)">
          <path id="Fill-3" d="M4.926,1.728A2.53,2.53,0,0,0,1.745.123,2.5,2.5,0,0,0,.124,3.274L6.651,23.167a2.529,2.529,0,0,0,3.071,1.55,2.476,2.476,0,0,0,1.729-3.095L4.926,1.728" transform="translate(0.085 3.264)" fill="#dddddd"/>
        </g>
      </g>
    </g>
    <path id="Fill-5" d="M23.306,4.879a2.5,2.5,0,0,0,1.621-3.151A2.529,2.529,0,0,0,21.746.123L1.664,6.589a2.5,2.5,0,0,0,1.559,4.754L23.306,4.879" transform="translate(3.286 14.254)" fill="#dddddd"/>
    <path id="Fill-6" d="M1.56,6.3l4.8-1.545L4.8,0,0,1.546,1.56,6.3" transform="translate(7.576 18.452)" fill="#dddddd"/>
    <g id="Group-2" data-name="Group" transform="translate(0 4.143)">
      <path id="Fill-7" d="M1.56,6.3l4.8-1.545L4.8,0,0,1.546,1.56,6.3" transform="translate(17.689 11.053)" fill="#dddddd"/>
      <path id="Fill-9" d="M23.306,4.879a2.5,2.5,0,0,0,1.621-3.151A2.529,2.529,0,0,0,21.746.123L1.664,6.589a2.5,2.5,0,0,0,1.56,4.754L23.306,4.879" transform="translate(0 0.093)" fill="#dddddd"/>
    </g>
    <path id="Fill-11" d="M1.56,6.3l4.8-1.545L4.8,0,0,1.546,1.56,6.3" transform="translate(4.289 8.433)" fill="#dddddd"/>
    <path id="Fill-12" d="M1.56,6.3l4.8-1.545L4.8,0,0,1.546,1.56,6.3" transform="translate(14.402 5.177)" fill="#dddddd"/>
    <path id="Fill-13" d="M11.639,1.184c.888.384.953.672.258,1.984-.71,1.344-.888,1.424-1.76,1.072A10.117,10.117,0,0,0,6.73,3.423c-1.485,0-2.471.528-2.471,1.328,0,2.639,8.51,1.216,8.51,6.846,0,2.831-2.455,4.719-6.136,4.719A14.553,14.553,0,0,1,.659,14.845c-.823-.416-.872-.656-.161-2,.614-1.184.807-1.312,1.7-.944a12.579,12.579,0,0,0,4.376,1.072c1.356,0,2.261-.544,2.261-1.344,0-2.559-8.655-1.344-8.655-6.8C.174,1.936,2.613,0,6.262,0a14.536,14.536,0,0,1,5.377,1.184" transform="translate(35.324 6.71)" fill="#dddddd"/>
    <path id="Fill-14" d="M3.876,1.136V22.123a.765.765,0,0,1-.823.656H.824A.765.765,0,0,1,0,22.123V1.136C0,.1.291,0,1.938,0,3.811,0,3.876.128,3.876,1.136" transform="translate(49.951 0.072)" fill="#dddddd"/>
    <path id="Fill-15" d="M5.555,16.316C2.232,16.316,0,14.407,0,11.565,0,8.548,2.531,6.511,6.3,6.494a10.272,10.272,0,0,1,3.811.688V6.143c0-1.662-1.334-2.655-3.568-2.655A7.342,7.342,0,0,0,3.165,4.495a1.522,1.522,0,0,1-.687.262c-.345,0-.635-.342-1.154-1.109C.881,2.98.653,2.56.717,2.256c.049-.231.26-.4.606-.624A10.8,10.8,0,0,1,6.911,0a7.676,7.676,0,0,1,5.166,1.664A5.964,5.964,0,0,1,13.984,6.3v9.038a.784.784,0,0,1-.824.815h-2.2a.832.832,0,0,1-.617-.252.8.8,0,0,1-.206-.611l.032-.977A6.243,6.243,0,0,1,5.555,16.316ZM7.169,9.23c-2.034,0-3.455.947-3.455,2.3,0,1.071.928,1.791,2.309,1.791a4.84,4.84,0,0,0,4.085-2.159V9.758A8.644,8.644,0,0,0,7.169,9.23Z" transform="translate(55.684 6.71)" fill="#dddddd"/>
    <g id="Group-3" data-name="Group" transform="translate(71.33)">
      <path id="Fill-16" d="M13.258,1.216c.807.464.84.72-.049,2.079-.839,1.28-.985,1.36-1.873.912a6.4,6.4,0,0,0-2.649-.656A4.353,4.353,0,0,0,4.037,8.126a4.459,4.459,0,0,0,4.651,4.783,6.9,6.9,0,0,0,2.971-.8c.807-.464.985-.432,1.841.8.775,1.152.759,1.424.065,1.9a9.51,9.51,0,0,1-4.941,1.5C3.456,16.316,0,13.037,0,8.126,0,3.247,3.456,0,8.655,0a9.912,9.912,0,0,1,4.6,1.216" transform="translate(0.195 6.71)" fill="#dddddd"/>
      <path id="Fill-18" d="M14.243,20.795c.646.816.388,1.1-1.227,1.68-1.647.592-1.873.56-2.454-.192l-4.619-6.11L3.876,18.156v3.967a.765.765,0,0,1-.823.656H.824A.765.765,0,0,1,0,22.123V1.136C0,.1.291,0,1.938,0,3.811,0,3.876.128,3.876,1.136V13.069l6.33-6.015c.694-.656,1.082-.608,2.325.208,1.373.88,1.47,1.12.807,1.76L8.623,13.565l5.62,7.23" transform="translate(16.07 0.072)" fill="#dddddd"/>
    </g>
  </g>
</svg>
