<svg xmlns="http://www.w3.org/2000/svg" width="80" height="33" viewBox="0 0 80 33">
	<g id="Item_7" data-name="Item 7" transform="translate(0 0)">
		<path id="Shape" d="M45,33h0V6.957h5l.3,1.385A6.418,6.418,0,0,1,54.75,6.6a6.981,6.981,0,0,1,5.358,2.574A11.358,11.358,0,0,1,62.5,16.606c0,3.286-.816,5.985-2.361,7.8A6.99,6.99,0,0,1,54.727,26.9,6.5,6.5,0,0,1,50.7,25.5l-.023,6.322L45,33ZM53.376,11.55a3.191,3.191,0,0,0-2.543,1.039l.022,7.865a3.246,3.246,0,0,0,2.522,1,2.8,2.8,0,0,0,2.382-1.415,6.577,6.577,0,0,0,.908-3.546,6.511,6.511,0,0,0-.916-3.511A2.843,2.843,0,0,0,53.376,11.55ZM32.349,27.225H26.667V7.656h4.909l.364,1.655a3.561,3.561,0,0,1,3.277-1.886,4.548,4.548,0,0,1,1.451.231V12.8a4.29,4.29,0,0,0-1.325-.194,3.67,3.67,0,0,0-2.993,1.357V27.224Zm-11.381,0A6.1,6.1,0,0,1,16.706,25.6,5.611,5.611,0,0,1,15,21.495l.023-17.861,5.622-1.159-.023,4.838H25v4.749H20.622v7.916a2.12,2.12,0,0,0,2.365,2.364A6,6,0,0,0,25,21.963v4.526A9.271,9.271,0,0,1,20.968,27.225ZM43.333,26.4H37.5V7.425h5.833V26.4Zm29.287,0a9.178,9.178,0,0,1-6.7-2.475,8.305,8.305,0,0,1-1.91-3.084,12.747,12.747,0,0,1-.681-4.307,11.058,11.058,0,0,1,2.282-7.042A7.872,7.872,0,0,1,71.9,6.6a7.28,7.28,0,0,1,6.043,2.9A11.629,11.629,0,0,1,80,16.576c0,.29-.013.763-.028,1.23l0,.09c-.008.273-.015.51-.015.618H68.986c.211,2.2,1.675,3.311,4.352,3.311a12.3,12.3,0,0,0,5.5-1.2v4.356A12.905,12.905,0,0,1,72.62,26.4Zm-.469-14.85a2.979,2.979,0,0,0-2.984,3.3H75a3.785,3.785,0,0,0-.687-2.266A2.6,2.6,0,0,0,72.151,11.55ZM6.336,26.4a15.926,15.926,0,0,1-6.09-1.24V19.982a14.009,14.009,0,0,0,6.09,1.741c1.441,0,2.142-.434,2.142-1.327,0-1.025-1.358-1.5-2.931-2.058C3.075,17.466,0,16.383,0,12.758A5.582,5.582,0,0,1,2.072,8.234,8.649,8.649,0,0,1,7.541,6.6a15.084,15.084,0,0,1,5.532,1v5.114a12.694,12.694,0,0,0-5.532-1.393c-1.277,0-1.9.384-1.9,1.175,0,.926,1.212,1.329,2.746,1.838A12.582,12.582,0,0,1,12.208,16.1a4.962,4.962,0,0,1,1.958,4.163,5.47,5.47,0,0,1-2.175,4.528A9.307,9.307,0,0,1,6.336,26.4ZM37.5,5.775h0V1.191L43.333,0V4.561L37.5,5.775Z" fill="#dddddd"/>
	</g>
</svg>
