<svg xmlns="http://www.w3.org/2000/svg" xmlns:xlink="http://www.w3.org/1999/xlink" width="36" height="36" viewBox="0 0 36 36">
  <g id="Twitter" transform="translate(0)" clip-path="url(#clip-path)">
    <path id="Twitter-2" data-name="Twitter" d="M15.429,1.522a6.226,6.226,0,0,1-1.818.512A3.243,3.243,0,0,0,15,.238a6.231,6.231,0,0,1-2.01.787A3.124,3.124,0,0,0,10.681,0,3.207,3.207,0,0,0,7.516,3.246a3.363,3.363,0,0,0,.083.74A8.913,8.913,0,0,1,1.075.594,3.286,3.286,0,0,0,.646,2.226a3.266,3.266,0,0,0,1.408,2.7A3.08,3.08,0,0,1,.621,4.521v.041A3.228,3.228,0,0,0,3.16,7.745a3.086,3.086,0,0,1-.834.114,3.038,3.038,0,0,1-.6-.059,3.181,3.181,0,0,0,2.957,2.255A6.259,6.259,0,0,1,.755,11.444,6.222,6.222,0,0,1,0,11.4a8.8,8.8,0,0,0,4.852,1.458,9.068,9.068,0,0,0,9.006-9.235c0-.141,0-.28-.009-.42a6.527,6.527,0,0,0,1.579-1.68Z" transform="translate(10.286 11.571)" fill="#fff"/>
  </g>
</svg>
