<svg xmlns="http://www.w3.org/2000/svg" width="85.941" height="17.94" viewBox="0 0 85.941 17.94">
  <g id="Item_3" data-name="Item 3">
  	<path fill="#dddddd" id="Fill-1" d="M13.518.433v9.891c0,3.3-1.462,4.674-4.891,4.674s-4.891-1.372-4.891-4.674V0H.433A.383.383,0,0,0,0,.433V10.486c0,5.523,3.52,7.454,8.627,7.454s8.627-1.931,8.627-7.454V0h-3.3a.383.383,0,0,0-.433.433"/>
  	<path fill="#dddddd" id="Fill-2" d="M13.717,2.87a.454.454,0,0,0,.487-.289L15.161.216c.054-.144,0-.216-.145-.216H1.714C.469,0,0,.379,0,1.227V16.587c0,.722.36,1.047,1.317,1.047h12.4a.455.455,0,0,0,.487-.289l.957-2.365c.054-.144,0-.216-.145-.216H3.664V11.641c0-1.083.6-1.57,2.2-1.57h4.928a.454.454,0,0,0,.487-.288L12.2,7.508c.054-.145,0-.216-.145-.216H3.664V2.87H13.717" transform="translate(47.682)"/>
  	<path fill="#dddddd" id="Fill-3" d="M10.558,17.634H1.318C.382,17.634,0,17.33,0,16.586V1.228C0,.356.5,0,1.715,0H9.222c3.195,0,6.461.532,6.461,4.476a4.035,4.035,0,0,1-2.038,3.863c1.835.483,2.887,2.1,2.887,4.422C16.532,16.788,13.283,17.634,10.558,17.634ZM5.864,10c-1.564,0-2.2.455-2.2,1.571V14.8h6.517a2.927,2.927,0,0,0,2.105-.582,2.359,2.359,0,0,0,.548-1.8c0-1.763-.719-2.418-2.653-2.418Zm-2.2-7.166V7.346H9.493c2.074,0,2.491-.863,2.491-2.256s-.417-2.256-2.491-2.256Z" transform="translate(24.337)"/>
  	<path fill="#dddddd" id="Fill-4" d="M3.664,17.635H.433A.384.384,0,0,1,0,17.2V1.228C0,.356.5,0,1.714,0H9.259c2.407,0,4.048.353,5.164,1.112,1.262.858,1.875,2.271,1.875,4.32,0,2.823-1.163,4.493-3.556,5.108l3.953,6.787a.227.227,0,0,1,.023.22.189.189,0,0,1-.185.087H13.175a.492.492,0,0,1-.487-.289L9.114,10.92H5.866c-1.564,0-2.2.455-2.2,1.57v5.144Zm0-14.8V8.176H9.8c2.352,0,2.8-.938,2.8-2.67,0-2.246-.983-2.671-2.8-2.671Z" transform="translate(69.203)"/>
  </g>
</svg>
